<svg fill="none" height="27" id="svg-1136939901_3515" viewbox="0 0 23 27" width="23">
<g clip-path="url(#svg-1136939901_3515_clip0_57_5342)">
<path clip-rule="evenodd" d="M8.54434 1.50953C6.97046 2.3294 5.68282 3.02316 5.68309 3.05138C5.68379 3.12421 9.46043 5.03685 9.59448 5.03219C9.65545 5.03014 10.0978 4.82653 10.5774 4.57976L11.4496 4.13117L12.4021 4.62078L13.3545 5.11047L14.9143 4.40957C17.2647 3.35343 17.5088 3.23769 17.4705 3.19881C17.4198 3.14722 16.5767 2.69434 14.2896 1.49021C13.1842 0.908251 12.1114 0.337654 11.9054 0.222193C11.6995 0.106733 11.5028 0.0138528 11.4685 0.0156507C11.4342 0.0174485 10.1182 0.689702 8.54434 1.50953ZM1.64134 5.08414L0.00295583 5.93042V9.64459C0.00295583 11.6874 0.0244694 13.3587 0.0508586 13.3587C0.0771564 13.3587 0.883245 13.0093 1.84212 12.5822L3.58555 11.8057V7.89075L4.4375 8.35491C5.094 8.71225 5.75089 9.06887 6.40818 9.42476L7.52689 10.0305L8.02469 9.80537C8.33689 9.66397 8.64846 9.52119 8.9594 9.37705C9.19968 9.26515 9.7895 8.99949 10.2701 8.78658C10.7507 8.57358 11.1955 8.35939 11.2586 8.31057C11.3424 8.24572 10.3206 7.68107 7.47926 6.22198C5.3375 5.12214 3.51643 4.22576 3.43245 4.23006C3.34847 4.23435 2.54247 4.61864 1.64134 5.08414ZM17.7658 5.3218C16.65 5.82554 15.7362 6.25782 15.7352 6.28247C15.7342 6.30709 16.3424 6.66871 17.0868 7.08594C17.8311 7.50326 18.4401 7.86701 18.4401 7.89441C18.4401 7.92174 17.7814 8.24088 16.9765 8.60374C16.1714 8.96652 14.1366 9.88545 12.4546 10.6458L6.81859 13.1934C5.40085 13.8343 4.12293 14.412 3.97876 14.4773C1.08296 15.7882 0.28702 16.1519 0.177716 16.2143C0.0678013 16.2772 0.0429053 16.6424 0.0233419 18.4754L0 20.6616L1.46512 21.4082L2.9302 22.1546L4.96178 21.2378C6.07917 20.7336 6.99335 20.2946 6.99335 20.2622C6.99335 20.23 6.78686 20.0955 6.53461 19.9632C6.28224 19.8308 5.76128 19.5379 5.37681 19.3121C4.99237 19.0863 4.60903 18.8791 4.52486 18.8516C4.44073 18.8242 4.37311 18.7763 4.37448 18.7451C4.37588 18.7139 5.27049 18.2889 6.36238 17.8007C8.48318 16.8525 10.1062 16.1216 13.5905 14.5459C15.1486 13.8415 16.7069 13.1375 18.2653 12.4339C19.635 11.8157 21.2275 11.0936 21.8042 10.8294L22.8528 10.3489L22.8761 8.13779L22.8995 5.92677L21.4135 5.16404C20.5962 4.74459 19.8976 4.40241 19.861 4.40366C19.8244 4.40482 18.8815 4.81793 17.7658 5.3218ZM22.4547 13.2986C22.2357 13.4056 21.8032 13.6059 21.4935 13.7436C21.1838 13.8814 20.5962 14.1465 20.1877 14.3329L19.445 14.6717L19.428 16.6129C19.4187 17.6805 19.3794 18.5492 19.3407 18.5436C19.2527 18.5305 17.8607 17.8166 16.4614 17.0668C15.4514 16.5257 15.388 16.5042 15.1507 16.6217C15.0135 16.6897 14.1934 17.0575 13.3284 17.4392C12.4633 17.8208 11.7273 18.1579 11.6927 18.1884C11.6582 18.2189 13.3992 19.1626 15.5618 20.2855L19.4937 22.3273L21.1733 21.4584C22.0969 20.9806 22.8824 20.5448 22.9186 20.4899C23 20.3667 22.993 13.0873 22.9115 13.0971C22.8793 13.101 22.6736 13.1917 22.4547 13.2986ZM13.1536 21.8429C12.8623 21.9681 12.571 22.0935 12.2798 22.2192C11.4005 22.5996 11.5728 22.6122 10.5267 22.0914C9.82997 21.7446 9.52963 21.6376 9.39927 21.6895C9.30149 21.7285 8.45993 22.1071 7.52899 22.5309C6.59812 22.9546 5.80419 23.3014 5.7647 23.3014C5.37413 23.3014 6.02344 23.6893 8.52898 24.9532L11.4674 26.4353L12.7037 25.8249C13.3837 25.4892 14.7552 24.8169 15.7516 24.331C16.7479 23.845 17.5508 23.4347 17.5357 23.4193C17.5206 23.4038 16.6858 22.9752 15.6805 22.4666L13.8527 21.5422L13.1536 21.8429Z" fill="black" fill-rule="evenodd"></path>
</g>
<defs>
<clippath id="svg-1136939901_3515_clip0_57_5342">
<rect fill="white" height="26.4489" width="23"></rect>
</clippath>
</defs>
</svg>