<svg fill="none" height="165" id="svg1609349875_25776" viewbox="0 0 110 165" width="110">
<g clip-path="url(#svg1609349875_25776_clip0_61_8037)">
<path d="M92.4332 68.6303C91.8539 67.4785 90.7669 67.0056 90.3377 66.8186C83.6708 63.9104 66.3954 82.797 62.7138 86.8865C60.2711 86.3824 57.6416 85.9217 54.8447 85.5459C51.1073 85.0418 26.324 92.2404 24.4972 94.4973C23.6701 95.6058 22.9356 96.7801 22.3528 98.0342C22.0527 98.8153 21.8189 99.619 21.6706 100.444C21.5153 102.025 21.5729 103.646 21.6601 105.224C21.7561 106.953 21.9445 108.674 22.1696 110.389C22.4191 112.192 22.693 113.994 22.9478 115.797C27.664 115.301 32.3802 114.806 37.0982 114.311C47.0559 110.287 57.0152 106.262 66.9729 102.238C68.7491 101.521 70.3526 100.345 72.3364 98.895C78.1973 94.6098 81.2769 90.1116 86.7451 81.9622C88.373 79.5355 89.5996 77.5713 90.5052 75.9622C92.9357 71.6459 93.0596 69.8878 92.428 68.6321L92.4332 68.6303Z" fill="#F9B0C3"></path>
<path d="M22.693 116.126L22.6529 115.838C22.5412 115.042 22.4243 114.247 22.3074 113.45C22.1609 112.443 22.0143 111.437 21.8747 110.429C21.6095 108.404 21.4472 106.755 21.3617 105.238C21.2606 103.433 21.2239 101.923 21.3722 100.412L21.3757 100.388C21.5223 99.5776 21.7561 98.7479 22.0719 97.9251L22.0806 97.9061C22.639 96.7058 23.3491 95.5314 24.2564 94.3172C25.305 93.0199 32.4919 90.5655 38.8709 88.6966C45.3983 86.7844 52.8835 84.9761 54.8883 85.2463C57.4497 85.591 60.046 86.0309 62.6074 86.5557C68.9637 79.5079 84.1244 63.7771 90.4616 66.5415C90.903 66.7338 92.0773 67.2447 92.7054 68.4953C93.3737 69.8221 93.3004 71.6252 90.7757 76.1078C89.8422 77.7637 88.6086 79.7331 87.0034 82.1268C81.7288 89.987 78.5463 94.7312 72.5214 99.1359L72.4952 99.1549C70.4835 100.625 68.8957 101.786 67.0933 102.515L37.1785 114.603L22.6948 116.124L22.693 116.126ZM21.9742 100.483C21.8311 101.952 21.8677 103.433 21.9655 105.205C22.0492 106.707 22.2097 108.34 22.4732 110.349C22.6128 111.352 22.7593 112.359 22.9059 113.363C23.0089 114.065 23.1101 114.764 23.2095 115.466L37.0249 114.016L66.8612 101.959C68.5938 101.259 70.1555 100.116 72.1323 98.6717L72.1585 98.6526C78.0961 94.312 81.2577 89.6008 86.4939 81.7943C88.0904 79.4126 89.317 77.4571 90.2435 75.8151C92.7787 71.3117 92.6635 69.7667 92.161 68.7655C91.6306 67.7107 90.6396 67.2794 90.2156 67.0941C84.0319 64.3972 67.7755 81.7146 62.9407 87.0875L62.8237 87.2174L62.6528 87.1828C60.0495 86.6458 57.4096 86.1955 54.8046 85.8456C53.1714 85.6256 46.6877 87.0355 39.0402 89.2768C31.3787 91.5216 25.4952 93.7456 24.7345 94.6879C23.8621 95.857 23.1729 96.9933 22.6337 98.152C22.3354 98.9332 22.112 99.7178 21.9724 100.485L21.9742 100.483Z" fill="#773838"></path>
<path d="M101.456 75.9814C100.524 77.5749 99.2642 79.52 97.5979 81.9207C91.9988 89.9818 88.8476 94.4315 82.917 98.6232C80.9087 100.042 79.2878 101.192 77.4994 101.881C67.4772 105.746 57.455 109.612 47.4328 113.476C40.218 114.117 33.0031 114.759 25.7883 115.4C24.8636 113.587 23.4817 110.244 23.5899 105.978C23.7818 98.4015 28.5364 93.4061 29.8224 92.0551C37.7386 83.7359 49.7394 83.8139 53.5902 83.8381C58.1389 83.8676 64.354 84.8029 65.6399 84.9969C68.4298 85.4178 71.0505 85.9201 73.4863 86.4639C77.2324 82.4334 94.8097 63.8256 101.429 66.8377C101.855 67.0317 102.935 67.5236 103.495 68.6824C104.106 69.9485 103.954 71.7049 101.454 75.9814H101.456Z" fill="#F9B0C3"></path>
<path d="M25.6139 115.717L25.5214 115.535C23.979 112.513 23.2078 109.204 23.2898 105.969C23.4189 100.864 25.5441 96.1133 29.6042 91.8472C37.6112 83.4344 49.6417 83.5106 53.5937 83.5366C56.5511 83.5557 60.8469 83.9679 65.687 84.6989C68.2414 85.0834 70.8289 85.5666 73.3833 86.1313C79.8514 79.1856 95.2633 63.6973 101.557 66.5639C101.995 66.7631 103.162 67.2931 103.769 68.5524C104.415 69.8895 104.314 71.6909 101.717 76.132C100.758 77.774 99.491 79.7226 97.8474 82.0903C92.4472 89.8657 89.1879 94.5596 83.0932 98.8656L83.0671 98.8846C81.0326 100.322 79.4256 101.458 77.611 102.158L47.5043 113.768L47.4624 113.772L25.6139 115.715V115.717ZM52.7911 84.1342C48.272 84.1342 37.3931 84.5378 30.0439 92.2594C26.0884 96.4147 24.0208 101.032 23.8935 105.983C23.815 109.054 24.5321 112.196 25.9681 115.08L47.363 113.178L77.3894 101.599C79.1325 100.927 80.7133 99.8095 82.7129 98.3962L82.739 98.3771C88.7464 94.1318 91.983 89.4707 97.3449 81.7491C98.9797 79.3935 100.238 77.4587 101.19 75.8306C103.799 71.3687 103.708 69.8203 103.221 68.8122C102.708 67.7487 101.724 67.3018 101.302 67.1095C95.1604 64.314 78.6283 81.3715 73.7079 86.6648L73.5892 86.7929L73.4182 86.7548C70.8237 86.1763 68.1908 85.6844 65.5928 85.293C60.7806 84.5672 56.5162 84.1567 53.5867 84.1377C53.3494 84.1377 53.0807 84.1342 52.7876 84.1342H52.7911Z" fill="#773838"></path>
<path d="M106.069 79.8041C105.973 79.9548 105.877 80.1089 105.778 80.2648C105.381 80.8866 104.949 81.5483 104.478 82.2532C104.036 82.9114 103.562 83.6077 103.052 84.3439C97.057 92.9956 93.6808 97.771 87.3261 102.271C85.1748 103.795 83.4352 105.028 81.5212 105.77C74.828 108.359 68.1367 110.947 61.4453 113.536C60.4438 113.924 59.4405 114.312 58.439 114.699C55.4606 115.85 53.6495 118.863 54.0421 122.011C54.6824 127.147 55.41 132.991 56.1202 138.679C57.8161 152.285 59.4004 165 59.4004 165L8.74326 164.707C11.9816 150.906 15.2183 137.105 18.4566 123.304C19.254 119.904 19.4302 116.394 19.0167 112.928C19.0167 112.913 19.0132 112.896 19.0115 112.88C18.4392 108.018 19.2383 104.284 19.5157 103.108C20.102 100.629 20.9221 97.1613 23.7713 93.9015C25.3347 92.114 26.9102 91.0834 27.7495 90.5309C31.1432 88.2999 34.3222 87.6089 35.8821 87.3577C41.6138 86.5956 48.3296 86.1435 55.8585 86.4466C57.0903 86.4969 58.3012 86.5644 59.4911 86.6493C61.5553 86.7965 63.5548 86.9922 65.4881 87.2278C72.8913 88.1302 80.3155 85.7191 85.7192 80.613C88.9645 77.5472 92.6775 74.3064 96.2038 71.8521C99.8626 69.3077 103.317 67.6102 105.837 67.8319C106.085 67.8544 106.322 67.8943 106.55 67.9532C106.756 68.0069 106.954 68.0761 107.144 68.1627C107.311 68.239 107.575 68.3585 107.87 68.5403C108.377 68.8538 108.981 69.3527 109.363 70.1408C110.101 71.665 109.806 73.8561 106.067 79.8041H106.069Z" fill="#F9B0C3"></path>
<path d="M54.6737 118.769L54.1625 118.447C55.2687 116.716 56.6576 115.369 58.2872 114.437C59.3167 113.85 60.2449 113.581 60.8573 113.403C61.0545 113.346 61.2237 113.297 61.3337 113.254C68.0268 110.666 74.7181 108.077 81.4095 105.487C83.2817 104.763 84.9759 103.563 87.122 102.044L87.1499 102.025C93.59 97.4642 97.057 92.4602 102.803 84.1722C109.185 74.9627 109.942 72.0251 109.093 70.2705C108.538 69.1238 107.475 68.6423 107.022 68.4362C104.862 67.4558 101.283 68.6891 96.38 72.0978C93.3388 74.2127 89.823 77.1503 85.9303 80.8293C83.8766 82.7692 75.7109 88.1646 65.4706 87.5272C63.7171 87.4181 61.9635 87.1236 60.2588 86.6543L60.4211 86.074C62.0857 86.533 63.7973 86.8188 65.509 86.9262C75.5347 87.5515 83.5085 82.2877 85.5115 80.3928C89.4269 76.693 92.9654 73.7364 96.031 71.6042C101.122 68.0621 104.903 66.8115 107.273 67.8871C107.742 68.1002 108.988 68.6648 109.637 70.0072C110.628 72.0545 109.913 74.9713 103.3 84.5099C97.5176 92.8534 94.028 97.8885 87.5006 102.511L87.4727 102.531C85.2934 104.074 83.5713 105.293 81.6293 106.045C74.9362 108.634 68.2449 111.222 61.5535 113.812C61.4174 113.864 61.2447 113.914 61.0266 113.978C60.4403 114.148 59.5557 114.404 58.5891 114.955C57.0449 115.836 55.7276 117.118 54.6737 118.765V118.769Z" fill="#773838"></path>
<path d="M90.9484 85.3727C88.7569 83.5956 85.6808 82.8785 82.9223 83.5003L82.7879 82.9131C85.7262 82.2497 88.9994 83.0136 91.3323 84.9068L90.9484 85.3727Z" fill="#773838"></path>
<path d="M89.9399 82.5564C88.5022 82.0766 86.9406 81.8618 85.4243 81.9345L85.3947 81.3335C87.0086 81.2556 88.6016 81.4738 90.1336 81.9865L89.9399 82.5564Z" fill="#773838"></path>
<path d="M106.151 80.2423L105.886 80.0431C104.853 79.2671 104.15 78.356 103.799 77.3324C102.843 74.5489 104.404 70.9219 107.683 68.3048L107.85 68.1714L108.032 68.284C108.761 68.7326 109.302 69.3146 109.639 70.0091C110.429 71.6425 110.152 73.8769 106.327 79.9617L106.151 80.2405V80.2423ZM107.892 68.9145C104.928 71.3602 103.515 74.6442 104.373 77.1401C104.654 77.9594 105.198 78.7042 105.992 79.3589C109.487 73.7435 109.763 71.6581 109.093 70.2724C108.834 69.7389 108.431 69.2834 107.892 68.9145Z" fill="#773838"></path>
<mask height="67" id="svg1609349875_25776_mask0_61_8037" maskunits="userSpaceOnUse" style="mask-type:luminance" width="67" x="22" y="14">
<path d="M78.3761 70.7241C91.2571 57.937 91.2571 37.2051 78.3761 24.418C65.495 11.631 44.6108 11.631 31.7297 24.418C18.8487 37.2051 18.8487 57.937 31.7297 70.7241C44.6108 83.5111 65.495 83.5111 78.3761 70.7241Z" fill="white"></path>
</mask>
<g mask="url(#svg1609349875_25776_mask0_61_8037)">
<path d="M78.3761 70.7241C91.2571 57.937 91.2571 37.2051 78.3761 24.418C65.495 11.631 44.6108 11.631 31.7297 24.418C18.8487 37.2051 18.8487 57.937 31.7297 70.7241C44.6108 83.5111 65.495 83.5111 78.3761 70.7241Z" fill="#FFC212"></path>
<path d="M78.3761 70.7241C91.2571 57.937 91.2571 37.2051 78.3761 24.418C65.495 11.631 44.6108 11.631 31.7297 24.418C18.8487 37.2051 18.8487 57.937 31.7297 70.7241C44.6108 83.5111 65.495 83.5111 78.3761 70.7241Z" fill="#3D3B3B"></path>
<path d="M76.4032 35.8855L14.5486 36.1963L14.5841 43.1609L76.4387 42.8501L76.4032 35.8855Z" fill="#FFC212"></path>
<path d="M75.6688 31.1226L13.8142 31.4333L13.829 34.3294L75.6836 34.0186L75.6688 31.1226Z" fill="#FFC212"></path>
<path d="M75.4177 28.0686L13.5631 28.3794L13.5685 29.4498L75.4231 29.139L75.4177 28.0686Z" fill="#FFC212"></path>
<path d="M75.7942 44.7759L13.9396 45.0867L13.9451 46.1571L75.7997 45.8463L75.7942 44.7759Z" fill="#FFC212"></path>
<path d="M77.1641 55.4348L15.3096 55.7456L15.3451 62.7102L77.1997 62.3994L77.1641 55.4348Z" fill="#FFC212"></path>
</g>
<path d="M60.224 80.2874C78.4405 80.2874 93.2079 65.6277 93.2079 47.5441C93.2079 29.4605 78.4405 14.8008 60.224 14.8008C42.0074 14.8008 27.24 29.4605 27.24 47.5441C27.24 65.6277 42.0074 80.2874 60.224 80.2874Z" fill="#FFC212"></path>
<path d="M60.2205 80.5784C51.3952 80.5784 43.0917 77.1887 36.8138 71.0207C30.4976 64.813 26.9923 56.5353 26.9469 47.7104C26.8544 29.4958 41.7063 14.6016 60.0547 14.5081C60.1123 14.5081 60.1716 14.5081 60.2292 14.5081C69.0545 14.5081 77.3598 17.8977 83.6359 24.0657C89.9539 30.2735 93.4574 38.5511 93.5011 47.3761C93.5464 56.1993 90.1266 64.5133 83.8732 70.7834C77.6198 77.0536 69.2813 80.5333 60.3932 80.5766C60.3356 80.5766 60.2763 80.5766 60.2187 80.5766L60.2205 80.5784ZM60.2292 15.0918C60.1716 15.0918 60.1158 15.0918 60.0582 15.0918C42.0326 15.1818 27.4407 29.8145 27.5332 47.7086C27.5768 56.3777 31.0193 64.5098 37.2256 70.6085C43.3918 76.6673 51.5505 79.9981 60.2205 79.9981C60.2781 79.9981 60.3339 79.9981 60.3915 79.9981C69.1243 79.9548 77.3162 76.5374 83.4597 70.3764C89.6031 64.2154 92.9619 56.0486 92.9166 47.3813C92.8729 38.7122 89.4304 30.5801 83.2241 24.4814C77.0579 18.4226 68.8974 15.0918 60.2292 15.0918Z" fill="#3D3B3B"></path>
<path d="M60.224 77.0346C76.6308 77.0346 89.9312 63.8313 89.9312 47.5442C89.9312 31.257 76.6308 18.0537 60.224 18.0537C43.8171 18.0537 30.5168 31.257 30.5168 47.5442C30.5168 63.8313 43.8171 77.0346 60.224 77.0346Z" fill="#F7941D"></path>
<path d="M60.2205 77.3255C52.2659 77.3255 44.7789 74.2701 39.1204 68.7102C33.4254 63.1138 30.2673 55.652 30.2271 47.6965C30.187 39.7428 33.2683 32.2481 38.9058 26.5945C44.5433 20.941 52.06 17.806 60.0739 17.7661C60.1262 17.7661 60.1768 17.7661 60.2292 17.7661C76.7002 17.7661 90.1423 31.0252 90.226 47.3951C90.3098 63.8153 76.9201 77.2424 60.3792 77.3255C60.3269 77.3255 60.2746 77.3255 60.2222 77.3255H60.2205ZM60.2274 18.3446C60.1768 18.3446 60.1262 18.3446 60.0756 18.3446C52.2188 18.3845 44.8487 21.4589 39.3211 27.0016C33.7935 32.5443 30.7715 39.8917 30.8116 47.6913C30.8518 55.4909 33.9488 62.8072 39.5322 68.2945C45.079 73.7453 52.4212 76.7418 60.2205 76.7418C60.2711 76.7418 60.3234 76.7418 60.374 76.7418C76.592 76.6604 89.7183 63.4931 89.638 47.3951C89.556 31.3456 76.3757 18.3446 60.2274 18.3446Z" fill="#3D3B3B"></path>
<path d="M57.7655 63.3457C56.6296 63.3509 55.5566 63.3561 54.4504 63.363C54.4416 61.7227 54.4329 60.0963 54.4259 58.437C52.3985 58.2308 50.3919 58.34 48.3575 58.3174C48.4604 57.6818 48.5616 57.0738 48.6593 56.4658C48.7431 55.9462 48.8338 55.4266 48.9019 54.9052C48.9298 54.6957 49.0257 54.642 49.2194 54.6437C49.8999 54.6472 50.5821 54.6454 51.2626 54.6316C52.0373 54.616 52.2624 54.3908 52.2589 53.6391C52.238 49.1824 52.217 44.7241 52.1891 40.2674C52.1839 39.3736 51.6482 38.8142 50.7409 38.7536C50.3518 38.7276 49.961 38.7345 49.5719 38.7328C49.1845 38.731 48.7972 38.7362 48.3854 38.738C48.3802 37.697 48.3749 36.6716 48.3697 35.6254C50.3378 35.615 52.2903 35.6064 54.2759 35.596C54.2672 33.9055 54.2584 32.234 54.2497 30.5366C55.3716 30.5314 56.4587 30.5262 57.5753 30.5192C57.5841 32.1664 57.5928 33.8033 57.5998 35.4436C58.3989 35.4401 59.1666 35.4349 59.9727 35.4314C59.964 33.7756 59.9553 32.1491 59.9483 30.5019C60.9603 30.4967 61.9374 30.4915 62.9424 30.4863C62.9511 32.1578 62.9598 33.8344 62.9686 35.5076C63.7572 35.6306 64.5267 35.7138 65.2787 35.8748C66.6204 36.1606 67.9011 36.6075 68.9323 37.5636C69.8222 38.3881 70.2252 39.4412 70.3543 40.6156C70.4468 41.466 70.4102 42.3095 70.138 43.1305C69.8012 44.1455 69.1434 44.9025 68.2518 45.4758C68.1175 45.5624 67.9797 45.6386 67.8819 45.6958C68.538 45.9781 69.2359 46.2119 69.8658 46.5653C71.2756 47.3551 72.0311 48.6005 72.1794 50.1905C72.3155 51.6489 72.1724 53.0762 71.5618 54.4324C70.897 55.9116 69.7367 56.8486 68.2449 57.4289C66.7339 58.0178 65.1583 58.2707 63.5461 58.3486C63.4414 58.3538 63.3385 58.3607 63.2355 58.3711C63.2024 58.3746 63.1709 58.3902 63.1116 58.4075C63.1203 60.0339 63.1291 61.6638 63.1361 63.3162C62.131 63.3214 61.1539 63.3266 60.142 63.3318C60.1332 61.7331 60.1262 60.1309 60.1175 58.4924C59.3167 58.4959 58.5489 58.501 57.7411 58.5045C57.7498 60.0963 57.7568 61.7071 57.7655 63.3491V63.3457ZM57.6992 48.1137C57.7114 50.3533 57.7219 52.5617 57.7324 54.7615C58.8072 54.7563 59.8593 54.7961 60.9062 54.7338C62.1991 54.6558 63.4763 54.4549 64.6471 53.8331C66.2505 52.9809 66.6344 50.9977 65.4636 49.6155C64.8599 48.9036 64.0259 48.6386 63.1762 48.4221C61.3843 47.9631 59.5557 48.0808 57.6992 48.1137ZM57.6783 45.0878C57.9034 45.0878 58.0988 45.0826 58.2942 45.0843C59.7982 45.0999 61.3057 45.0757 62.7365 44.5508C63.5408 44.2564 64.2492 43.7922 64.5406 42.9192C65.0135 41.5024 64.326 40.0838 62.9284 39.5226C62.0037 39.1519 61.0318 39.0359 60.0495 38.9961C59.2556 38.9649 58.46 38.9961 57.6469 39.0013C57.6573 41.0503 57.6678 43.0422 57.6783 45.0878Z" fill="#3D3B3B"></path>
<path d="M59.362 63.3372C58.2261 63.3424 57.1531 63.3476 56.0469 63.3545C56.0381 61.7142 56.0294 60.0878 56.0224 58.4284C53.995 58.2223 51.9884 58.3314 49.954 58.3089C50.0569 57.6733 50.1581 57.0653 50.2558 56.4573C50.3396 55.9377 50.4303 55.4181 50.4984 54.8967C50.5263 54.6871 50.6222 54.6334 50.8159 54.6352C51.4964 54.6386 52.1786 54.6369 52.8591 54.623C53.6338 54.6075 53.8589 54.3823 53.8554 53.6306C53.8344 49.1739 53.8135 44.7155 53.7856 40.2589C53.7804 39.3651 53.2447 38.8057 52.3374 38.745C51.9483 38.7191 51.5575 38.726 51.1684 38.7243C50.781 38.7225 50.3937 38.7277 49.9819 38.7295C49.9767 37.6885 49.9714 36.6631 49.9662 35.6169C51.9343 35.6065 53.8868 35.5978 55.8724 35.5875C55.8637 33.8969 55.8549 32.2255 55.8462 30.528C56.9681 30.5228 58.0552 30.5176 59.1718 30.5107C59.1806 32.1579 59.1893 33.7947 59.1963 35.4333C59.9954 35.4298 60.7631 35.4246 61.5692 35.4212C61.5605 33.7653 61.5518 32.1389 61.5448 30.4917C62.5568 30.4865 63.5339 30.4813 64.5389 30.4761C64.5476 32.1475 64.5563 33.8242 64.565 35.4974C65.3537 35.6204 66.1232 35.7035 66.8752 35.8646C68.2169 36.1504 69.4976 36.5973 70.5288 37.5534C71.4187 38.3778 71.8217 39.4309 71.9508 40.6053C72.0433 41.4558 72.0067 42.2993 71.7345 43.1203C71.3977 44.1353 70.7399 44.8922 69.8483 45.4655C69.714 45.5521 69.5762 45.6283 69.4784 45.6855C70.1345 45.9678 70.8324 46.2017 71.4623 46.555C72.8721 47.3448 73.6276 48.5902 73.7759 50.1803C73.912 51.6387 73.7689 53.0659 73.1583 54.4221C72.4935 55.9013 71.3332 56.8384 69.8414 57.4186C68.3304 58.0075 66.7548 58.2604 65.1426 58.3384C65.0379 58.3436 64.9349 58.3505 64.832 58.3609C64.7989 58.3643 64.7674 58.3799 64.7081 58.3973C64.7168 60.0237 64.7256 61.6536 64.7325 63.306C63.7275 63.3112 62.7504 63.3164 61.7384 63.3216C61.7297 61.7229 61.7227 60.1207 61.714 58.4821C60.9132 58.4856 60.1454 58.4908 59.3376 58.4943C59.3463 60.086 59.3533 61.6969 59.362 63.3389V63.3372ZM59.2957 48.107C59.3079 50.3465 59.3184 52.5549 59.3289 54.7547C60.4037 54.7495 61.4558 54.7893 62.5027 54.727C63.7956 54.649 65.0728 54.4481 66.2436 53.8263C67.847 52.9741 68.2309 50.9909 67.0601 49.6087C66.4564 48.8968 65.6224 48.6318 64.7727 48.4153C62.9808 47.9563 61.1522 48.074 59.2957 48.107ZM59.2748 45.081C59.4999 45.081 59.6953 45.0758 59.8907 45.0775C61.3947 45.0931 62.9022 45.0689 64.333 44.5441C65.1373 44.2496 65.8457 43.7854 66.1371 42.9124C66.61 41.4956 65.9225 40.077 64.5249 39.5158C63.6002 39.1452 62.6283 39.0291 61.646 38.9893C60.8521 38.9581 60.0565 38.9893 59.2434 38.9945C59.2538 41.0435 59.2643 43.0354 59.2748 45.081Z" fill="#FFC212"></path>
<path d="M55.7572 63.6454L55.7311 58.6917C54.4015 58.5739 53.0545 58.5843 51.7494 58.5947C51.1614 58.5999 50.5542 58.6033 49.9522 58.5982L49.612 58.5947L49.7498 57.7529C49.8231 57.2974 49.8964 56.8539 49.9679 56.4105L50.0308 56.0295C50.0936 55.645 50.1599 55.2483 50.2105 54.8569C50.2541 54.5156 50.4582 54.3424 50.8142 54.3424H50.8194C51.376 54.3459 52.1088 54.3459 52.8556 54.3303C53.468 54.3182 53.5675 54.2194 53.5657 53.6305C53.5448 49.1739 53.5239 44.7155 53.496 40.2589C53.4907 39.5193 53.0737 39.0845 52.3199 39.0325C52.0268 39.0118 51.7232 39.0118 51.4301 39.0118H51.1701C50.9049 39.01 50.6397 39.0118 50.3675 39.0135L49.694 39.017L49.6748 35.3241L55.581 35.2947L55.5548 30.2353L59.465 30.2162L59.4894 35.1405L61.2761 35.1319L61.2516 30.2024L64.832 30.1851L64.8582 35.2497C65.0204 35.2739 65.1827 35.2964 65.3432 35.319C65.8684 35.3934 66.4111 35.4696 66.938 35.5822C68.0809 35.8247 69.5465 36.2456 70.7295 37.342C71.5984 38.1474 72.0922 39.204 72.2422 40.5741C72.3504 41.5562 72.2754 42.4188 72.0119 43.2121C71.6874 44.1924 71.0505 45.0082 70.1205 45.6352C70.1502 45.6474 70.1799 45.6595 70.2095 45.6716C70.6754 45.8569 71.157 46.0492 71.6071 46.3021C73.078 47.1266 73.9068 48.4222 74.0673 50.1542C74.2208 51.8049 74.0115 53.2391 73.4252 54.5416C72.7674 56.0052 71.6298 57.0358 69.9478 57.6905C68.5502 58.2344 66.9816 58.5427 65.1565 58.6293C65.1042 58.6311 65.0519 58.6345 65.0013 58.638L65.0257 63.5952L61.4453 63.6125L61.4209 58.7731L59.6307 58.7818L59.6551 63.6264L55.7555 63.6454H55.7572ZM52.8748 58.0092C53.9234 58.0092 54.9913 58.0318 56.0539 58.1392L56.3156 58.1651L56.34 63.0617L59.0689 63.0479L59.0445 58.2032L62.0054 58.1877L62.0298 63.0271L64.4394 63.015L64.415 58.1825L64.6226 58.1184C64.6401 58.1132 64.654 58.108 64.6662 58.1045C64.7029 58.0924 64.7483 58.0751 64.8058 58.0699C64.914 58.0595 65.0239 58.0525 65.1321 58.0474C66.8944 57.9625 68.4001 57.668 69.7384 57.1484C71.2704 56.5526 72.3033 55.6207 72.8948 54.3043C73.4374 53.0971 73.6328 51.7564 73.488 50.2079C73.3449 48.6768 72.6174 47.5336 71.3227 46.8079C70.9057 46.574 70.4416 46.3887 69.9949 46.2103C69.7838 46.1254 69.5727 46.0423 69.3668 45.9522L68.8433 45.727L69.4296 45.3806C69.5099 45.3356 69.6023 45.2802 69.6931 45.223C70.5829 44.6514 71.1604 43.9343 71.4588 43.0319C71.6944 42.32 71.7624 41.5371 71.6629 40.6382C71.5286 39.4119 71.0924 38.4731 70.3317 37.7681C69.2534 36.767 67.8854 36.379 66.8159 36.1504C66.3099 36.043 65.8004 35.9702 65.2612 35.894C65.017 35.8594 64.7709 35.8247 64.5214 35.7866L64.2754 35.7485L64.2492 30.7688L61.8397 30.7809L61.8641 35.7104L58.9066 35.726L58.8822 30.8017L56.1428 30.8155L56.169 35.875L50.2628 35.9044L50.275 38.435H50.3623C50.638 38.4315 50.9067 38.4298 51.1736 38.4315H51.4301C51.7337 38.4315 52.0478 38.4315 52.3601 38.454C53.4157 38.5268 54.0752 39.2179 54.0805 40.2571C54.1066 44.7138 54.1293 49.1722 54.1503 53.6288C54.1537 54.5451 53.8065 54.8932 52.8678 54.9123C52.1158 54.9279 51.376 54.9261 50.8177 54.9244C50.8072 54.9244 50.8002 54.9244 50.7915 54.9244C50.7915 54.9261 50.7915 54.9296 50.7915 54.9331C50.7392 55.3332 50.6728 55.735 50.61 56.1247L50.549 56.5023C50.4774 56.9475 50.4041 57.3909 50.3309 57.8464L50.3029 58.0214C50.788 58.0231 51.2748 58.0214 51.7494 58.0162C52.1228 58.0127 52.4997 58.011 52.8783 58.011L52.8748 58.0092ZM61.0789 55.0526C60.8224 55.0526 60.5677 55.0508 60.3164 55.0491C59.9901 55.0457 59.6604 55.0439 59.3306 55.0456H59.0375L59.0008 47.8211L59.2905 47.8159C59.526 47.8125 59.7598 47.8055 59.9954 47.8003C61.5919 47.7622 63.2425 47.7224 64.846 48.1329C65.7166 48.3563 66.6222 48.6387 67.2852 49.4216C67.9011 50.1473 68.1541 51.0774 67.9814 51.9712C67.8087 52.865 67.2259 53.634 66.3831 54.0826C65.0641 54.7841 63.6263 54.9504 62.5219 55.0162C62.0438 55.0457 61.5605 55.0526 61.0807 55.0526H61.0789ZM59.6203 54.4637C59.8541 54.4637 60.0879 54.4654 60.3199 54.4671C61.0667 54.4741 61.7716 54.4793 62.4852 54.436C63.5304 54.3736 64.8861 54.2177 66.1057 53.5699C66.7914 53.2062 67.266 52.5826 67.4056 51.8621C67.5452 51.1398 67.3376 50.3881 66.8368 49.7957C66.2837 49.1444 65.5107 48.9037 64.6994 48.6958C63.1744 48.3061 61.6373 48.3425 60.0076 48.3823C59.868 48.3858 59.7284 48.3893 59.5888 48.3927L59.6203 54.4654V54.4637ZM58.9851 45.372L58.9502 38.7052H59.2434C59.4929 38.7017 59.7406 38.6982 59.9884 38.6948C60.5363 38.6861 61.1033 38.6775 61.6599 38.7C62.494 38.7329 63.5862 38.8264 64.6366 39.2473C66.186 39.8691 66.9345 41.4488 66.4163 43.0042C66.1389 43.8373 65.4898 44.4314 64.4359 44.8177C62.972 45.3546 61.4488 45.3841 59.8889 45.3685C59.7581 45.3685 59.6272 45.3685 59.4876 45.3685L58.9869 45.372H58.9851ZM59.7668 44.7865C59.8087 44.7865 59.8506 44.7865 59.8942 44.7865C61.3965 44.8021 62.8621 44.7744 64.2335 44.2721C65.1234 43.9465 65.6399 43.4857 65.8614 42.8206C66.2802 41.5648 65.673 40.2883 64.4167 39.7843C63.4501 39.3963 62.4242 39.3114 61.6373 39.2785C61.0964 39.256 60.5642 39.2646 59.9989 39.275C59.8471 39.2768 59.6935 39.2802 59.54 39.282L59.5679 44.7865C59.636 44.7865 59.7023 44.7865 59.7686 44.7865H59.7668Z" fill="#3D3B3B"></path>
<g opacity="0.8">
<path d="M91.0496 42.8483C91.2624 44.3535 91.3741 45.8656 91.4107 47.3864C91.4212 47.8246 92.1104 47.8263 92.0982 47.3864C92.0598 45.805 91.9342 44.234 91.7126 42.6682C91.6515 42.2351 90.9885 42.4187 91.0496 42.85V42.8483Z" fill="white"></path>
<path d="M86.9632 31.6019C88.3102 33.8016 89.317 36.1573 90.0777 38.6151C90.2068 39.0343 90.8716 38.8559 90.7407 38.4332C89.9643 35.92 88.9349 33.5055 87.5565 31.2572C87.3261 30.8813 86.7312 31.2243 86.9615 31.6019H86.9632Z" fill="white"></path>
<path d="M60.0652 16.5866C68.969 16.4826 77.782 20.3833 83.6167 27.0674C83.9063 27.4 84.3914 26.915 84.1035 26.5841C78.1571 19.7701 69.1365 15.7985 60.0652 15.9024C59.622 15.9076 59.622 16.59 60.0652 16.5848V16.5866Z" fill="white"></path>
</g>
<path d="M60.0739 18.0553C57.673 18.0674 55.342 18.3619 53.1086 18.9075C54.986 18.5282 56.928 18.3238 58.9171 18.3134C75.3236 18.2303 88.6906 31.3664 88.7743 47.6532C88.8459 61.5566 79.211 73.262 66.1842 76.4404C79.7938 73.6898 90.0044 61.7073 89.9311 47.3951C89.8474 31.1083 76.4804 17.9722 60.0739 18.0553Z" fill="#3D3B3B"></path>
<path d="M65.8039 75.3423C63.7869 80.6286 62.3963 83.1159 61.7001 84.1673C48.3174 104.396 40.2598 125.763 29.7561 124.643C23.6911 123.997 18.7498 116.057 17.9105 109.523C16.9247 101.852 21.5607 95.9022 22.5639 94.6135C26.3711 89.729 31.9842 86.9767 35.2557 85.3746C38.2201 83.9213 41.0747 82.9358 44.7859 79.9947C45.7071 79.2655 45.1279 79.4283 48.9996 76.0681C49.9243 75.2661 50.8474 74.504 51.814 73.7384C54.0927 71.9353 56.6105 70.1132 59.9448 67.7038C60.5503 67.2674 62.0299 66.2939 63.6211 66.5918C64.6436 66.7824 65.4828 67.4856 66.036 68.3897C66.4041 68.989 66.6466 69.6749 66.7339 70.3591C66.952 72.0704 66.4059 73.754 65.8022 75.3406L65.8039 75.3423Z" fill="#F9B0C3"></path>
<path d="M36.1072 120.555C33.6871 120.555 31.288 120.281 28.9377 119.734C26.7829 119.233 24.6717 118.499 22.6617 117.553L22.9216 117.009C24.8933 117.936 26.9644 118.656 29.0756 119.148C32.5164 119.949 36.0636 120.155 39.623 119.758L39.691 120.356C38.4941 120.489 37.2989 120.555 36.1072 120.555Z" fill="#773838"></path>
<path d="M51.6953 98.036L51.226 97.6549C54.5935 93.5759 57.8423 89.3617 60.8835 85.1268C63.1221 82.009 64.8024 78.673 65.8789 75.2089C66.8508 72.0807 66.8857 70.3296 66.0063 68.9664C65.3764 67.9896 64.2911 67.2621 62.8691 66.862L63.0349 66.2834C64.6017 66.7251 65.8056 67.5409 66.5158 68.6425C67.4929 70.1564 67.4754 72.1102 66.4565 75.3873C65.3607 78.9121 63.6525 82.307 61.3756 85.4767C58.3256 89.722 55.0681 93.9483 51.6936 98.0377L51.6953 98.036Z" fill="#773838"></path>
<path d="M58.8124 74.0311C56.9664 74.0311 54.8761 73.3816 53.9095 72.1276L54.3911 71.7621C55.6543 73.4024 59.2574 73.8735 60.9237 73.0161C61.5012 72.7199 62.0159 72.2696 62.5114 71.8366L64.1952 70.3591C64.9123 69.7303 65.5021 69.2038 66.036 68.6045L66.4896 69.0029C65.8894 69.6767 65.1723 70.3054 64.5965 70.8094L62.918 72.2817C62.3893 72.7442 61.8467 73.2188 61.2028 73.5496C60.5764 73.8718 59.7232 74.0311 58.8124 74.0311Z" fill="#773838"></path>
<path d="M6.37555 39.0377L5.35134 32.8611L4.32714 39.0377L0 39.9557L4.32539 41.0538L5.35134 47.2339L6.37729 41.0556L10.8039 40.0042L6.37555 39.0377Z" fill="#7767BF"></path>
<path d="M100.997 12.3306L99.3828 2.6084L97.7706 12.3306L90.9589 13.7751L97.7689 15.5055L99.3828 25.2346L100.997 15.509L107.966 13.8531L100.997 12.3306Z" fill="#7767BF"></path>
<path d="M15.0159 24.5471L14.2691 20.0454L13.5223 24.5454L10.3694 25.2139L13.5223 26.0159L14.2691 30.5193L15.0159 26.0176L18.242 25.2503L15.0159 24.5471Z" fill="#7767BF"></path>
<path d="M10.6608 59.2355L9.91403 54.7356L9.16725 59.2355L6.01437 59.9041L9.16725 60.7061L9.91403 65.2095L10.6608 60.7078L13.887 59.9405L10.6608 59.2355Z" fill="#7767BF"></path>
<path d="M87.7798 4.50169L87.033 0L86.2862 4.49995L83.1334 5.17027L86.2862 5.97049L87.033 10.4739L87.7798 5.97222L91.006 5.20491L87.7798 4.50169Z" fill="#7767BF"></path>
</g>
<defs>
<clippath id="svg1609349875_25776_clip0_61_8037">
<rect fill="white" height="165" width="110"></rect>
</clippath>
</defs>
</svg>