<svg fill="none" height="347" id="svg-770826118_40132" viewbox="0 0 331 347" width="331">
<g clip-path="url(#svg-770826118_40132_clip0_57_5590)">
<path d="M240.546 187.608L190.756 325.427L174.573 315.261L153.397 301.953L114.939 277.8L108.774 273.925L97.2104 266.662L69.1877 249.058L52.9249 238.841L165.498 146.483L169.896 148.892L179.275 154.033L184.051 156.653L184.384 156.831L220.045 176.375L221.511 177.177L240.546 187.608Z" fill="#E0DFFE"></path>
<g style="mix-blend-mode:multiply">
<path d="M179.275 154.033L97.2104 266.662L69.1877 249.058L169.896 148.892L179.275 154.033Z" fill="#AEAECC"></path>
</g>
<g style="mix-blend-mode:multiply">
<path d="M184.384 156.83C161.238 197.157 138.089 237.473 114.939 277.8L108.774 273.925C133.865 234.828 158.96 195.742 184.051 156.653L184.384 156.834V156.83Z" fill="#AEAECC"></path>
</g>
<g style="mix-blend-mode:multiply">
<path d="M221.511 177.177C205.865 223.204 190.215 269.231 174.569 315.261L153.394 301.953C175.611 260.099 197.824 218.237 220.045 176.375L221.511 177.177Z" fill="#AEAECC"></path>
</g>
<path d="M222.019 334.08C218.321 339.57 212.538 343.303 206.014 344.395C200.742 345.284 195.353 344.38 190.698 341.899C185.672 345.186 179.613 346.906 173.303 346.539C162.211 345.883 152.653 338.92 148.495 328.91C147.367 329.385 146.184 329.759 144.95 330.017C138.237 331.403 131.394 329.023 126.971 324.001C119.282 329.367 109.772 331.497 100.509 329.882C90.9004 328.213 82.4026 322.681 76.9925 314.568C73.8321 309.826 71.8909 304.449 71.2523 298.898C69.1115 299.678 66.7893 299.907 64.4961 299.515C60.9619 298.909 57.8233 296.899 55.8022 293.938C53.7812 290.981 53.0446 287.324 53.7703 283.812C54.0715 282.357 54.6121 280.982 55.3523 279.734C50.2217 279.255 45.2579 277.307 41.1033 274.02C34.1657 268.527 30.3594 259.982 30.9109 251.152C31.4625 242.321 36.3101 234.317 43.8827 229.731C46.6875 228.033 49.7355 226.883 52.8741 226.295C56.1288 225.682 59.4815 225.667 62.758 226.273C62.3879 222.442 63.7921 218.636 66.5788 215.962C69.4743 213.187 73.5128 211.953 77.4606 212.635C80.0404 213.081 82.3772 214.315 84.1914 216.114C86.9744 206.384 95.3707 198.801 106.038 197.56C118.876 196.069 130.629 204.269 133.923 216.408C136.92 214.409 140.255 212.9 143.807 211.975C152.243 209.78 161.213 211.046 168.713 215.498C176.213 219.949 181.623 227.206 183.742 235.667C185.535 242.832 184.834 250.35 181.834 257.011C195.306 252.236 210.651 257.287 218.492 269.739C218.652 269.989 218.804 270.236 218.956 270.49C225.118 280.899 224.512 293.438 218.452 303.005C221.975 306.292 224.472 310.588 225.538 315.37C226.986 321.821 225.713 328.587 222.026 334.077L222.019 334.08Z" fill="#E0DFFE"></path>
<g style="mix-blend-mode:multiply">
<path d="M222.019 334.08C218.321 339.57 212.538 343.303 206.014 344.395C200.742 345.284 195.353 344.38 190.698 341.899C185.672 345.186 179.613 346.906 173.303 346.539C162.211 345.883 152.653 338.92 148.495 328.91C147.367 329.385 146.184 329.759 144.95 330.017C138.237 331.403 131.394 329.023 126.971 324.001C119.282 329.367 109.772 331.497 100.509 329.882C90.9004 328.213 82.4026 322.681 76.9925 314.568C73.8321 309.826 71.8909 304.449 71.2523 298.898C69.1115 299.678 66.7893 299.907 64.4961 299.515C60.9619 298.909 57.8233 296.899 55.8022 293.938C53.7812 290.981 53.0446 287.324 53.7703 283.812C54.0715 282.357 54.6121 280.982 55.3523 279.734C50.2217 279.255 45.2579 277.307 41.1033 274.02C34.1657 268.527 30.3594 259.982 30.9109 251.152C31.4625 242.321 36.3101 234.317 43.8827 229.731C46.6875 228.033 49.7355 226.883 52.8741 226.295C52.6346 226.941 52.4096 227.587 52.2355 228.225C50.4611 234.662 50.9764 241.7 54.1223 247.643C59.3836 257.57 70.6463 263.549 81.8764 263.923C82.1921 276.603 90.6827 288.707 102.501 293.325C114.319 297.937 128.764 294.795 137.592 285.684C141.325 296.493 150.875 304.166 161.924 305.247C174.29 306.455 186.318 299.192 191.307 287.292C192.763 287.535 203.423 289.131 211.62 281.65C216.377 277.307 217.951 272.057 218.492 269.746C218.652 269.996 218.804 270.243 218.956 270.497C225.118 280.906 224.512 293.445 218.452 303.012C221.975 306.299 224.472 310.595 225.538 315.377C226.986 321.828 225.713 328.594 222.026 334.084L222.019 334.08Z" fill="#AEAECC"></path>
</g>
<path d="M175.019 347C174.442 347 173.862 346.982 173.278 346.949C162.37 346.307 152.599 339.453 148.27 329.447C147.222 329.864 146.133 330.191 145.03 330.419C138.386 331.791 131.474 329.541 126.906 324.549C119.123 329.868 109.736 331.911 100.436 330.292C90.7626 328.613 82.0942 322.964 76.6478 314.8C73.5926 310.214 71.6115 304.921 70.9039 299.46C68.8139 300.135 66.5861 300.295 64.4235 299.928C60.795 299.308 57.5294 297.211 55.4575 294.178C53.3821 291.141 52.6164 287.335 53.3603 283.732C53.6252 282.459 54.0678 281.233 54.681 280.082C49.6193 279.491 44.8479 277.517 40.8457 274.35C33.8028 268.773 29.9349 260.095 30.4973 251.13C31.0597 242.165 35.9835 234.038 43.665 229.386C49.2601 226.001 55.8603 224.731 62.3045 225.787C62.0904 221.985 63.5273 218.328 66.2885 215.675C69.2639 212.824 73.4656 211.539 77.5259 212.243C79.9388 212.66 82.1595 213.738 83.9846 215.371C87.0833 205.484 95.6465 198.369 105.984 197.165C112.25 196.435 118.575 197.992 123.785 201.544C128.789 204.958 132.457 209.994 134.159 215.766C137.109 213.872 140.313 212.468 143.698 211.59C152.185 209.381 161.38 210.68 168.92 215.157C176.46 219.634 182.008 227.075 184.134 235.58C185.858 242.466 185.299 249.798 182.574 256.336C196.482 251.863 211.808 257.635 219.305 270.294C225.314 280.445 225.179 292.93 218.971 302.951C222.472 306.303 224.878 310.563 225.938 315.29C227.404 321.821 226.101 328.758 222.364 334.316C218.623 339.874 212.69 343.698 206.09 344.805C200.865 345.683 195.419 344.82 190.727 342.381C185.999 345.422 180.607 347.004 175.03 347.004L175.019 347ZM148.716 328.373L148.876 328.754C152.998 338.677 162.599 345.498 173.332 346.129C179.432 346.485 185.36 344.907 190.477 341.558L190.68 341.424L190.894 341.54C195.477 343.981 200.821 344.852 205.952 343.992C212.334 342.922 218.067 339.225 221.681 333.855C225.292 328.482 226.551 321.781 225.136 315.468C224.091 310.791 221.678 306.59 218.165 303.317L217.915 303.085L218.096 302.798C224.316 292.991 224.508 280.696 218.597 270.715C211.144 258.125 195.738 252.53 181.964 257.41L181.057 257.733L181.453 256.855C184.417 250.27 185.088 242.785 183.336 235.779C181.26 227.485 175.854 220.225 168.499 215.864C161.148 211.499 152.182 210.233 143.905 212.388C140.429 213.292 137.145 214.765 134.145 216.764L133.669 217.08L133.52 216.528C130.258 204.515 118.47 196.548 106.078 197.985C95.8497 199.178 87.4135 206.344 84.5833 216.245L84.391 216.913L83.8975 216.423C82.1087 214.649 79.8554 213.484 77.388 213.056C73.5818 212.399 69.6449 213.6 66.8582 216.274C64.1477 218.875 62.8016 222.507 63.1644 226.248L63.2152 226.792L62.6782 226.694C56.2667 225.515 49.6665 226.727 44.0895 230.097C36.6367 234.607 31.8616 242.495 31.3173 251.188C30.7731 259.885 34.5249 268.302 41.3573 273.711C45.3994 276.911 50.2507 278.856 55.385 279.335L56.0308 279.397L55.7006 279.955C54.9713 281.185 54.4561 282.513 54.1658 283.906C53.4691 287.288 54.1876 290.865 56.1361 293.721C58.0809 296.572 61.1542 298.542 64.5614 299.123C66.753 299.497 69.0171 299.29 71.1071 298.524L71.597 298.347L71.655 298.865C72.29 304.377 74.2494 309.732 77.33 314.35C82.6493 322.329 91.1218 327.847 100.574 329.491C109.779 331.091 119.072 329.023 126.732 323.675L127.033 323.464L127.276 323.74C131.648 328.707 138.383 330.96 144.863 329.621C146.046 329.374 147.214 329.012 148.328 328.54L148.709 328.38L148.716 328.373Z" fill="#3D3B3B"></path>
<path d="M55.3922 280.638L54.652 280.282C55.4866 278.537 56.6912 276.933 58.1354 275.645L58.6833 276.258C57.319 277.474 56.1833 278.987 55.3959 280.634L55.3922 280.638Z" fill="#3D3B3B"></path>
<path d="M70.9366 299.576L70.6318 298.811C72.8706 297.922 74.9896 296.747 76.9236 295.317L77.4134 295.977C75.4214 297.45 73.2407 298.662 70.9366 299.576Z" fill="#3D3B3B"></path>
<path d="M83.7705 222.021C83.502 219.685 83.5963 217.334 84.0426 215.026L84.8481 215.182C84.4164 217.406 84.3256 219.677 84.5833 221.927L83.7669 222.021H83.7705Z" fill="#3D3B3B"></path>
<path d="M134.449 222.275L133.637 222.163C133.949 219.906 133.785 217.558 133.165 215.367L133.956 215.142C134.609 217.442 134.78 219.91 134.453 222.279L134.449 222.275Z" fill="#3D3B3B"></path>
<path d="M190.781 342.49C189.022 341.692 187.559 340.223 186.772 338.456L187.523 338.122C188.231 339.707 189.54 341.024 191.119 341.739L190.778 342.487L190.781 342.49Z" fill="#3D3B3B"></path>
<path d="M218.049 303.248C216.634 302.211 215.074 301.398 213.409 300.839L213.67 300.059C215.415 300.647 217.048 301.496 218.532 302.584L218.046 303.248H218.049Z" fill="#3D3B3B"></path>
<path d="M281.794 153.54C274.167 161.714 263.554 172.134 249.65 183.127C245.415 186.476 240.876 189.876 236.018 193.282C235.176 192.56 221.464 180.802 220.611 180.072C219.769 179.35 206.057 167.592 205.208 166.862C199.718 163.793 193.858 160.705 187.628 157.672C180.974 154.432 174.537 151.559 168.376 149.012C169.196 143.272 170.193 137.783 171.318 132.558C176.213 109.806 183.535 92.0317 189.515 79.8121C200.506 57.3357 214.707 29.2393 245.462 12.6296C252.734 8.70393 259.214 6.34201 263.685 4.94154C272.767 2.14786 285.47 -0.290254 301.559 0.907036C308.605 1.43312 314.911 5.52567 318.221 11.7588C325.503 25.4805 328.438 37.6965 329.621 47.0535C330.213 51.7229 330.804 59.0046 330.046 67.792C326.885 104.498 303.405 130.356 281.791 153.536L281.794 153.54Z" fill="#F9B0C3"></path>
<path d="M249.653 183.127C245.419 186.476 240.88 189.876 236.021 193.283C235.179 192.561 221.467 180.802 220.615 180.072C219.773 179.35 206.061 167.592 205.212 166.862C199.722 163.793 193.862 160.705 187.632 157.672C180.977 154.432 174.54 151.559 168.379 149.012C169.199 143.272 170.197 137.783 171.322 132.558C183.887 136.774 198.187 143.04 212.89 152.43C228.202 162.211 240.299 173.048 249.653 183.127Z" fill="#FFC212"></path>
<path d="M330.049 67.7956C326.203 59.7593 316.947 43.2113 298.035 30.0157C276.239 14.8065 254.309 12.9126 245.459 12.6296C249.472 10.5289 255.658 7.40868 263.681 4.94154C272.763 2.14786 285.466 -0.290254 301.555 0.907036C308.601 1.43312 314.908 5.52567 318.217 11.7588C325.499 25.4805 328.435 37.6965 329.618 47.0535C330.488 53.9216 330.615 60.8514 330.042 67.792L330.049 67.7956Z" fill="#FFC212"></path>
<path d="M330.463 70.0415L329.512 68.0532C324.483 57.5425 314.882 42.4966 297.698 30.5055C278.322 16.987 258.587 13.6491 245.444 13.2246L243.176 13.1521L245.187 12.0999C249.998 9.58559 255.941 6.69759 263.51 4.37194C275.488 0.689369 288.307 -0.678444 301.606 0.312041C308.921 0.856264 315.329 5.03226 318.75 11.4795C324.824 22.9227 328.681 34.8702 330.216 46.9809C331.08 53.7946 331.225 60.8115 330.644 67.8428L330.463 70.0415ZM247.73 12.1326C260.978 12.8618 279.839 16.5952 298.38 29.5295C314.726 40.9364 324.295 55.0681 329.614 65.5607C329.991 59.3457 329.795 53.1597 329.033 47.1333C327.517 35.1641 323.703 23.3581 317.698 12.0419C314.469 5.95744 308.42 2.01727 301.519 1.5057C288.365 0.526102 275.698 1.87577 263.862 5.51481C257.396 7.50304 252.124 9.9085 247.734 12.1362L247.73 12.1326Z" fill="#3D3B3B"></path>
<path d="M235.985 194.037L235.633 193.736C235.031 193.221 227.879 187.086 223.521 183.352L220.23 180.53C219.533 179.931 210.07 171.815 206.311 168.59L204.874 167.356C199.141 164.152 193.256 161.076 187.374 158.209C181.057 155.133 174.591 152.223 168.154 149.563L167.726 149.386L167.791 148.929C168.586 143.388 169.577 137.837 170.741 132.435C174.711 113.975 180.85 96.1825 188.985 79.551C199.384 58.2792 213.63 29.1488 245.183 12.1073C250.999 8.96535 257.164 6.36397 263.51 4.37574C275.492 0.68954 288.307 -0.674645 301.609 0.31584C308.924 0.860063 315.332 5.03606 318.754 11.4833C324.828 22.9265 328.685 34.874 330.22 46.9847C331.098 53.9254 331.243 60.9459 330.648 67.8503C327.408 105.507 302.36 132.37 282.237 153.95C272.375 164.526 261.537 174.5 250.027 183.599C245.593 187.108 240.996 190.529 236.369 193.773L235.988 194.037H235.985ZM169.036 148.638C175.353 151.261 181.696 154.12 187.893 157.139C193.811 160.023 199.736 163.118 205.506 166.344L205.604 166.413L207.088 167.686C210.847 170.912 220.313 179.028 221.007 179.626L224.298 182.449C228.231 185.823 234.446 191.149 236.057 192.532C240.539 189.379 244.987 186.059 249.283 182.663C260.746 173.604 271.537 163.666 281.359 153.137C301.359 131.688 326.25 104.995 329.454 67.7487C330.042 60.9277 329.897 53.9907 329.03 47.1335C327.513 35.1642 323.699 23.3582 317.694 12.042C314.465 5.95761 308.416 2.01744 301.515 1.50587C288.362 0.526273 275.695 1.87594 263.859 5.51498C257.589 7.48144 251.497 10.0538 245.745 13.1559C214.526 30.0159 200.382 58.9504 190.052 80.0735C181.961 96.6179 175.854 114.32 171.906 132.685C170.781 137.913 169.816 143.28 169.04 148.638H169.036Z" fill="#3D3B3B"></path>
<path d="M235.985 194.037L235.633 193.736C235.031 193.221 227.879 187.086 223.521 183.352L220.23 180.53C219.533 179.931 210.07 171.815 206.311 168.589L204.874 167.356C199.141 164.152 193.256 161.075 187.374 158.209C181.057 155.133 174.591 152.223 168.154 149.563L167.726 149.386L167.791 148.928C168.586 143.388 169.577 137.837 170.741 132.435L170.883 131.782L171.514 131.992C186.177 136.916 200.208 143.62 213.213 151.925C226.743 160.567 239.149 170.926 250.092 182.721L250.531 183.193L250.023 183.592C245.589 187.1 240.992 190.522 236.366 193.765L235.985 194.03V194.037ZM169.036 148.638C175.353 151.261 181.696 154.12 187.893 157.139C193.811 160.023 199.736 163.118 205.506 166.344L205.604 166.412L207.088 167.686C210.847 170.911 220.313 179.028 221.007 179.626L224.298 182.449C228.231 185.823 234.446 191.149 236.057 192.531C240.361 189.502 244.635 186.32 248.775 183.066C238.01 171.543 225.829 161.406 212.567 152.937C199.831 144.803 186.108 138.214 171.765 133.342C170.698 138.363 169.783 143.504 169.036 148.642V148.638Z" fill="#3D3B3B"></path>
<path d="M203.006 98.6495C197.378 106.831 191.754 115.016 186.126 123.198C180.208 131.8 174.294 140.402 168.376 149.008C161.057 148.272 152.875 147.905 143.981 148.217C126.271 148.845 111.104 151.998 99.2024 155.488L122.512 119.754C133.452 102.981 152.828 93.6898 172.755 95.6599L203.002 98.6458L203.006 98.6495Z" fill="#7767BF"></path>
<path d="M186.126 123.201C180.208 131.803 174.294 140.406 168.376 149.012C161.057 148.275 152.875 147.909 143.981 148.221C126.271 148.849 111.104 152.001 99.2024 155.492C104.667 148.863 120.632 131.296 147.817 124.456C163.513 120.509 177.16 121.594 186.122 123.201H186.126Z" fill="#46467A"></path>
<path d="M235.161 192.564C238.782 198.964 242.418 206.3 245.716 214.572C252.28 231.03 255.51 246.181 257.113 258.477C264.882 246.566 272.654 234.654 280.423 222.743C291.366 205.97 292.059 184.499 282.222 167.051L267.295 140.576C256.584 157.904 245.872 175.236 235.161 192.564Z" fill="#7767BF"></path>
<path d="M199.57 187.811C194.784 193.696 189.279 199.258 182.977 203.648C182.033 204.301 181.061 204.936 180.008 205.52L178.76 204.704C179.798 195.906 183.136 187.452 187.084 179.662C189.029 175.849 191.391 172.315 194.12 169.014C195.473 167.359 196.877 165.734 198.256 164.098C200.125 161.906 202.465 158.866 204.49 156.217C205.081 155.441 205.647 154.701 206.162 154.022C209.639 149.502 214.497 143.385 218.089 138.951C223.481 132.301 228.913 125.686 234.53 119.207L235.778 120.023C229.21 133.774 222.106 147.608 214.776 161.05C213.942 162.581 213.104 164.105 212.266 165.625C210.183 169.355 208.401 173.27 206.482 177.083C204.559 180.907 202.276 184.492 199.573 187.811H199.57Z" fill="#7767BF"></path>
<path d="M251.627 165.919C246.141 174.801 240.647 183.682 235.158 192.564C238.782 198.964 242.414 206.3 245.713 214.569C252.277 231.026 255.506 246.177 257.11 258.473C260.974 250.8 270.619 229.107 265.916 201.475C263.202 185.522 256.707 173.469 251.624 165.915L251.627 165.919Z" fill="#46467A"></path>
<path d="M199.57 187.811C194.784 193.696 189.279 199.258 182.977 203.648C182.033 204.301 181.061 204.936 180.008 205.52L178.76 204.704C179.798 195.906 183.136 187.452 187.084 179.662C189.029 175.849 191.391 172.315 194.12 169.014C195.473 167.359 196.877 165.734 198.256 164.098C200.125 161.906 202.465 158.866 204.49 156.217C204.123 159.958 204.715 162.625 206.191 163.546C207.85 164.584 211.01 163.666 214.78 161.043C213.946 162.574 213.107 164.098 212.269 165.618C210.186 169.348 208.405 173.262 206.485 177.076C204.562 180.9 202.28 184.484 199.577 187.804L199.57 187.811Z" fill="#46467A"></path>
<path d="M179.979 206.213L178.122 205.001L178.165 204.635C179.08 196.911 181.743 188.889 186.547 179.394C188.459 175.65 190.85 172.032 193.655 168.636C194.537 167.563 195.451 166.481 196.337 165.44C196.823 164.867 197.313 164.294 197.795 163.717C199.911 161.235 202.628 157.669 204.813 154.806L205.687 153.663C209.323 148.936 214.301 142.681 217.625 138.577C222.436 132.642 228.155 125.654 234.08 118.818L234.421 118.427L236.544 119.809L236.319 120.28C229.185 135.225 221.268 150.579 212.788 165.912C211.391 168.422 210.103 171.06 208.858 173.614C208.26 174.844 207.639 176.114 207.015 177.355C205.038 181.288 202.69 184.934 200.034 188.192C194.682 194.777 189.058 200.143 183.321 204.142C182.534 204.686 181.478 205.393 180.299 206.046L179.983 206.221L179.979 206.213ZM179.392 204.41L180.027 204.824C181.035 204.247 181.942 203.637 182.635 203.158C188.281 199.225 193.822 193.936 199.105 187.434C201.703 184.245 204.004 180.671 205.945 176.814C206.565 175.581 207.186 174.315 207.781 173.088C209.033 170.52 210.328 167.867 211.739 165.331C220.118 150.18 227.944 135.011 235.012 120.237L234.635 119.994C228.844 126.691 223.26 133.52 218.546 139.332C215.226 143.428 210.255 149.672 206.631 154.392L205.76 155.532C203.568 158.409 200.836 161.986 198.702 164.49C198.22 165.063 197.73 165.64 197.24 166.217C196.358 167.258 195.444 168.332 194.569 169.398C191.819 172.729 189.479 176.274 187.606 179.938C182.944 189.15 180.328 196.94 179.392 204.41Z" fill="#3D3B3B"></path>
<path d="M97.8235 156.518L122.015 119.431C133.118 102.408 152.584 93.0693 172.817 95.0684L204.069 98.1524L186.619 123.535C180.701 132.137 174.787 140.74 168.873 149.346L168.673 149.636L168.321 149.6C160.277 148.79 152.098 148.526 144.007 148.812C128.974 149.346 113.959 151.78 99.3765 156.058L97.8272 156.511L97.8235 156.518ZM167.414 95.9972C149.573 95.9972 132.904 104.922 123.012 120.085L100.581 154.476C114.776 150.449 129.362 148.145 143.963 147.629C151.993 147.346 160.106 147.6 168.089 148.388C173.938 139.88 179.787 131.372 185.64 122.867L201.946 99.1501L172.704 96.2621C170.934 96.0879 169.17 96.0009 167.418 96.0009L167.414 95.9972Z" fill="#3D3B3B"></path>
<path d="M256.729 260.153L256.522 258.549C254.559 243.489 250.738 228.766 245.165 214.79C242.171 207.287 238.634 199.908 234.646 192.858L234.472 192.55L234.657 192.249L267.32 139.401L282.741 166.757C292.723 184.463 292.027 206.039 280.923 223.066L256.732 260.153H256.729ZM235.854 192.579C239.798 199.585 243.303 206.906 246.272 214.351C251.685 227.928 255.459 242.201 257.491 256.808L279.922 222.417C290.782 205.767 291.464 184.662 281.704 167.345L267.273 141.748L235.858 192.579H235.854Z" fill="#3D3B3B"></path>
<path d="M243.692 101.142C241.939 99.9991 240.285 98.9215 238.583 97.8077C240.245 95.2607 241.892 92.7355 243.572 90.1559C240.666 87.7831 237.473 85.9182 234.37 83.8212C235.179 82.9432 235.952 82.1014 236.725 81.2597C237.385 80.5413 238.057 79.8302 238.692 79.0901C238.949 78.7926 239.149 78.8107 239.446 79.0066C240.491 79.7032 241.536 80.3889 242.6 81.0601C243.804 81.8184 244.381 81.6987 245.143 80.5341C249.661 73.6152 254.178 66.6927 258.688 59.7665C259.592 58.3769 259.338 56.9692 258.01 55.9533C257.44 55.518 256.83 55.1334 256.235 54.7343C255.64 54.3388 255.042 53.9542 254.407 53.5406C255.462 51.9225 256.5 50.3333 257.56 48.7079C260.593 50.6889 263.605 52.6481 266.667 54.6472C268.38 52.0204 270.074 49.4263 271.791 46.7886C273.521 47.917 275.198 49.0091 276.918 50.1338C275.249 52.6916 273.59 55.235 271.928 57.7819C273.159 58.5837 274.345 59.3565 275.586 60.1693C277.262 57.5969 278.91 55.0717 280.579 52.5139C282.139 53.5334 283.645 54.513 285.194 55.5252C283.5 58.123 281.802 60.7244 280.107 63.3257C281.196 64.3162 282.291 65.2233 283.282 66.2355C285.053 68.0387 286.562 70.0269 287.172 72.5521C287.698 74.7327 287.241 76.7717 286.243 78.7164C285.517 80.1277 284.599 81.3939 283.34 82.3917C281.787 83.6216 280.002 84.1259 278.05 84.1114C277.756 84.1114 277.466 84.086 277.259 84.0788C277.977 85.1817 278.815 86.2484 279.421 87.4348C280.782 90.0834 280.669 92.7791 279.273 95.3913C277.992 97.7859 276.315 99.8503 273.993 101.331C271.46 102.945 268.721 103.221 265.836 102.608C262.912 101.987 260.234 100.783 257.676 99.2698C257.513 99.1719 257.346 99.0775 257.175 98.9868C257.121 98.9578 257.055 98.9506 256.947 98.9179C255.299 101.443 253.648 103.976 251.976 106.541C250.426 105.528 248.92 104.549 247.356 103.529C248.978 101.044 250.6 98.5587 252.259 96.0118C251.021 95.2063 249.838 94.4335 248.594 93.6208C246.983 96.0916 245.35 98.595 243.684 101.146L243.692 101.142ZM259.138 77.4973C256.87 80.9767 254.632 84.4053 252.404 87.823C254.058 88.9042 255.637 90.0326 257.309 90.9977C259.378 92.1877 261.544 93.1709 263.979 93.3959C267.313 93.7006 269.929 91.0231 269.541 87.696C269.341 85.9836 268.329 84.7282 267.244 83.5273C264.958 81.0021 262.03 79.3295 259.142 77.5009L259.138 77.4973ZM262.197 72.7952C262.542 73.0202 262.846 73.2125 263.144 73.4156C265.441 74.9649 267.781 76.4524 270.513 77.0946C272.052 77.4538 273.612 77.4538 274.951 76.398C277.121 74.6855 277.516 71.7902 275.942 69.5045C274.9 67.9916 273.521 66.8269 272.055 65.7747C270.869 64.9221 269.614 64.1639 268.358 63.3475C266.283 66.5294 264.265 69.6242 262.193 72.7988L262.197 72.7952Z" fill="#3D3B3B"></path>
<path d="M241.877 99.3859C240.125 98.2431 238.47 97.1655 236.769 96.0517C238.43 93.5047 240.078 90.9795 241.758 88.3999C238.851 86.0271 235.658 84.1622 232.556 82.0651C233.365 81.1871 234.138 80.3454 234.911 79.5037C235.571 78.7853 236.242 78.0742 236.877 77.334C237.135 77.0365 237.335 77.0547 237.632 77.2506C238.677 77.9472 239.722 78.6329 240.785 79.3041C241.99 80.0624 242.567 79.9427 243.329 78.778C247.846 71.8591 252.364 64.9366 256.874 58.0105C257.777 56.6209 257.523 55.2132 256.195 54.1973C255.626 53.7619 255.016 53.3773 254.421 52.9782C253.826 52.5828 253.227 52.1982 252.592 51.7846C253.648 50.1664 254.686 48.5773 255.746 46.9519C258.779 48.9329 261.791 50.8921 264.853 52.8912C266.566 50.2644 268.26 47.6703 269.976 45.0326C271.707 46.1609 273.383 47.253 275.103 48.3777C273.434 50.9356 271.776 53.4789 270.114 56.0259C271.344 56.8277 272.531 57.6005 273.772 58.4096C275.448 55.8372 277.095 53.312 278.765 50.7542C280.325 51.7737 281.831 52.7533 283.38 53.7656C281.685 56.3633 279.987 58.9647 278.293 61.5661C279.381 62.5566 280.477 63.4636 281.468 64.4759C283.238 66.279 284.748 68.2673 285.357 70.7925C285.884 72.973 285.426 75.012 284.429 76.9567C283.703 78.368 282.785 79.6343 281.526 80.632C279.973 81.862 278.188 82.3663 276.235 82.3518C275.942 82.3518 275.651 82.3264 275.444 82.3191C276.163 83.4221 277.001 84.4887 277.607 85.6751C278.968 88.3237 278.855 91.0194 277.458 93.6317C276.177 96.0263 274.501 98.0907 272.179 99.571C269.646 101.185 266.907 101.461 264.022 100.848C261.098 100.228 258.42 99.0231 255.862 97.5102C255.698 97.4122 255.531 97.3179 255.361 97.2272C255.306 97.1982 255.241 97.1909 255.132 97.1582C253.485 99.6834 251.834 102.216 250.161 104.781C248.612 103.769 247.106 102.789 245.542 101.77C247.164 99.2843 248.786 96.7991 250.444 94.2521C249.207 93.4466 248.024 92.6739 246.78 91.8611C245.169 94.3319 243.536 96.8353 241.87 99.3859H241.877ZM257.324 75.7449C255.056 79.2243 252.817 82.6529 250.589 86.0706C252.244 87.1518 253.822 88.2802 255.495 89.2452C257.563 90.4353 259.73 91.4185 262.164 91.6435C265.499 91.9482 268.115 89.2706 267.727 85.9436C267.527 84.2311 266.515 82.9758 265.43 81.7749C263.144 79.2497 260.216 77.5771 257.328 75.7485L257.324 75.7449ZM260.383 71.0392C260.727 71.2641 261.032 71.4564 261.33 71.6596C263.627 73.2088 265.967 74.6964 268.699 75.3385C270.238 75.6977 271.798 75.6977 273.137 74.6419C275.307 72.9294 275.702 70.0342 274.127 67.7484C273.086 66.2355 271.707 65.0709 270.241 64.0187C269.055 63.1661 267.799 62.4078 266.544 61.5915C264.468 64.7734 262.451 67.8682 260.379 71.0428L260.383 71.0392Z" fill="#FFC212"></path>
<path d="M250.343 105.623L244.708 101.947L249.61 94.4299L246.965 92.7065L242.055 100.231L235.927 96.2331L240.949 88.5341C239.044 87.0248 236.983 85.6897 234.987 84.3944C234.08 83.8067 233.136 83.1971 232.218 82.5731L231.634 82.1776L232.752 80.9622C233.332 80.3309 233.898 79.7141 234.465 79.0973L234.965 78.5531C235.448 78.027 235.949 77.4864 236.42 76.9386C236.725 76.583 237.244 76.2601 237.973 76.7463C238.826 77.3159 239.954 78.0597 241.112 78.7889C242.037 79.3694 242.244 79.3295 242.821 78.4443C247.338 71.5254 251.856 64.6029 256.366 57.6767C257.092 56.5629 256.899 55.4998 255.829 54.6799C255.401 54.3533 254.936 54.0449 254.483 53.7474L254.084 53.4826C253.674 53.2105 253.26 52.942 252.835 52.6662L251.751 51.9588L255.568 46.1065L264.675 52.0458L269.799 44.1873L275.945 48.1964L270.956 55.8445L273.594 57.5642L278.587 49.9088L284.222 53.5842L279.087 61.4573C279.298 61.6459 279.508 61.831 279.719 62.016C280.452 62.6654 281.206 63.333 281.907 64.0441C283.423 65.5861 285.252 67.7303 285.956 70.6437C286.471 72.7843 286.152 74.9395 284.976 77.2288C284.135 78.8688 283.133 80.135 281.91 81.1001C280.43 82.2756 278.648 82.896 276.616 82.9468C276.627 82.9613 276.635 82.9722 276.645 82.9867C277.172 83.7486 277.716 84.5359 278.155 85.3849C279.585 88.175 279.534 91.0412 278.003 93.9074C276.548 96.6285 274.751 98.6458 272.513 100.072C269.987 101.679 267.172 102.125 263.902 101.432C261.192 100.855 258.46 99.7415 255.557 98.0218C255.495 97.9855 255.43 97.9456 255.365 97.9093L250.339 105.612L250.343 105.623ZM246.388 101.592L249.987 103.939L254.875 96.4471L255.386 96.5959C255.459 96.614 255.55 96.6358 255.651 96.6902C255.829 96.7846 256.003 96.8825 256.177 96.9841C258.964 98.6349 261.573 99.7052 264.153 100.253C267.095 100.877 269.617 100.489 271.856 99.0594C273.913 97.746 275.571 95.8775 276.925 93.3451C278.257 90.8525 278.307 88.3673 277.066 85.9545C276.667 85.1745 276.145 84.4198 275.64 83.6942C275.401 83.3495 275.161 83.0048 274.936 82.6565L274.287 81.6624L275.68 81.7277C275.847 81.7386 276.043 81.7495 276.243 81.7495C276.272 81.7495 276.301 81.7495 276.333 81.7495C278.228 81.7495 279.806 81.2307 281.152 80.1604C282.233 79.3041 283.13 78.1649 283.892 76.6846C284.929 74.6674 285.216 72.788 284.77 70.9412C284.138 68.3145 282.44 66.3371 281.036 64.9076C280.368 64.2292 279.661 63.6015 278.91 62.9412C278.569 62.64 278.224 62.3353 277.883 62.0232L277.498 61.6749L282.538 53.9506L278.939 51.6032L273.946 59.2586L269.269 56.2073L274.258 48.5592L270.151 45.8816L265.027 53.7402L255.92 47.8009L253.434 51.6141L253.496 51.654C253.924 51.9334 254.345 52.2018 254.759 52.4812L255.15 52.7424C255.619 53.0508 256.105 53.3701 256.566 53.722C258.144 54.9266 258.46 56.7008 257.386 58.3479C252.875 65.2741 248.358 72.1966 243.84 79.1155C242.897 80.5631 241.95 80.759 240.462 79.823C239.298 79.0901 238.166 78.3427 237.309 77.7694C236.834 78.3173 236.337 78.8579 235.858 79.3803L235.361 79.9209C234.795 80.5377 234.225 81.1581 233.644 81.7894L233.485 81.9599C234.207 82.4389 234.936 82.9141 235.647 83.3749C237.821 84.7826 240.071 86.2412 242.142 87.9355L242.567 88.2802L237.61 95.8775L241.7 98.5442L246.609 91.0194L251.293 94.0743L246.391 101.592H246.388ZM262.672 92.2711C262.484 92.2711 262.295 92.2639 262.106 92.2457C259.349 91.9918 256.961 90.7909 255.19 89.7677C254.015 89.0929 252.872 88.3237 251.769 87.5799C251.268 87.2462 250.767 86.9087 250.259 86.5749L249.748 86.2412L257.142 74.9032L257.65 75.2261C258.017 75.4583 258.383 75.6869 258.75 75.9154C261.246 77.4755 263.83 79.0901 265.88 81.3577C266.997 82.5949 268.108 83.959 268.329 85.8638C268.536 87.6344 267.97 89.3505 266.776 90.5732C265.709 91.6652 264.24 92.2675 262.672 92.2675V92.2711ZM251.431 85.8929C251.772 86.1178 252.11 86.3464 252.447 86.5713C253.587 87.3369 254.661 88.0589 255.8 88.7119C257.462 89.6698 259.697 90.7981 262.219 91.0303C263.623 91.1646 264.969 90.682 265.905 89.7242C266.841 88.7627 267.284 87.4094 267.121 86.0053C266.939 84.4561 266.003 83.3096 264.976 82.1776C263.039 80.037 260.64 78.535 258.104 76.9495C257.904 76.8261 257.709 76.6991 257.509 76.5758L251.431 85.8929ZM270.394 76.1585C269.824 76.1585 269.214 76.0823 268.565 75.9299C265.756 75.2733 263.38 73.7748 260.992 72.1639C260.793 72.0297 260.593 71.8991 260.375 71.7612L259.541 71.217L266.37 60.7461L266.881 61.0799C267.266 61.3303 267.647 61.5734 268.032 61.8164C268.884 62.3607 269.766 62.9194 270.604 63.5217C271.856 64.4215 273.449 65.6768 274.635 67.4002C276.402 69.9653 275.934 73.2088 273.521 75.1172C272.64 75.8138 271.609 76.1585 270.397 76.1585H270.394ZM261.224 70.8614C261.377 70.9594 261.522 71.0573 261.671 71.1553C263.96 72.6973 266.232 74.134 268.841 74.7435C270.517 75.1354 271.765 74.9503 272.763 74.1594C274.657 72.6646 275.024 70.1104 273.63 68.0895C272.549 66.5185 271.061 65.3503 269.889 64.5085C269.08 63.928 268.253 63.3983 267.375 62.8396C267.161 62.7017 266.943 62.5638 266.725 62.426L261.224 70.8578V70.8614Z" fill="#3D3B3B"></path>
<path d="M111.906 294.878C109.739 296.362 107.218 297.153 104.656 297.218C104.079 301.47 102.062 305.429 98.8903 308.4C95.055 312.003 89.8917 313.831 84.6413 313.447C79.3909 313.066 74.5469 310.504 71.274 306.383C69.0498 303.575 67.6891 300.222 67.3117 296.725C57.6564 300.222 46.7565 297.864 39.3979 290.502C33.4799 284.581 30.7984 276.371 31.7963 268.363C29.7825 269.238 27.5655 269.648 25.3267 269.535C21.3245 269.332 17.5872 267.467 15.011 264.391C12.442 261.314 11.2664 257.308 11.7744 253.332C11.9667 251.859 12.3767 250.444 12.9826 249.127C10.9035 247.832 8.82441 246.137 6.93761 243.921C5.94341 242.749 -2.02109 233.072 1.23365 221.049C3.20754 213.738 9.03124 206.656 16.5603 204.047C18.8898 203.242 21.3862 202.861 23.9769 203.039C24.503 203.075 25.0219 203.133 25.5226 203.209C26.1141 201.225 26.9922 199.305 28.1605 197.527C32.2426 191.291 39.2491 187.586 46.7057 187.728C54.1658 187.866 61.0272 191.831 64.8734 198.22C66.7131 201.272 67.7363 204.675 67.9395 208.122C70.6645 205.553 74.5469 204.523 78.2371 205.466C82.3808 206.529 85.5303 209.889 86.3322 214.09C86.7458 216.267 86.4882 218.458 85.6609 220.417C92.018 216.303 99.8047 214.772 107.37 216.31C116.848 218.233 124.758 224.72 128.502 233.631C132.25 242.546 131.343 252.73 126.093 260.846C122.581 266.274 117.425 270.305 111.499 272.449C111.728 272.59 111.953 272.743 112.174 272.899C112.468 273.113 112.758 273.338 113.038 273.577C116.22 276.291 117.951 280.329 117.729 284.505C117.504 288.677 115.349 292.512 111.902 294.871L111.906 294.878Z" fill="#E0DFFE"></path>
<g style="mix-blend-mode:multiply">
<path d="M111.906 294.878C109.739 296.362 107.218 297.153 104.656 297.218C104.079 301.47 102.062 305.429 98.8903 308.4C95.055 312.003 89.8917 313.831 84.6413 313.447C79.3909 313.066 74.5469 310.504 71.274 306.383C69.0498 303.575 67.6891 300.222 67.3117 296.725C57.6564 300.222 46.7564 297.864 39.3979 290.502C33.4799 284.581 30.7984 276.371 31.7963 268.363C29.7825 269.238 27.5655 269.648 25.3267 269.535C21.3245 269.332 17.5872 267.467 15.011 264.391C12.442 261.314 11.2664 257.308 11.7744 253.332C11.9667 251.859 12.3767 250.444 12.9826 249.127C10.9035 247.832 8.82441 246.137 6.93761 243.921C5.94341 242.749 -2.02109 233.072 1.23365 221.049C3.20754 213.738 9.03124 206.656 16.5603 204.047C13.6684 208.742 11.6075 213.219 13.0117 219.278C14.6735 226.437 20.9399 232.292 28.1932 233.464C27.6671 235.097 25.3884 242.709 29.347 250.818C29.8333 251.812 34.4487 260.868 45.1055 263.172C53.4328 264.968 59.9713 261.466 61.5751 260.541C60.0113 268.646 62.758 276.803 68.8248 281.49C75.4504 286.613 86.6043 288.035 92.5949 281.795C97.087 277.115 96.5536 270.341 96.3903 268.77C97.6929 269.456 104.014 272.674 112.178 272.899C112.472 273.113 112.762 273.338 113.041 273.577C116.224 276.291 117.954 280.329 117.733 284.505C117.508 288.677 115.353 292.512 111.906 294.871V294.878Z" fill="#AEAECC"></path>
</g>
<path d="M85.9984 313.951C85.5339 313.951 85.0695 313.933 84.6051 313.9C79.2458 313.509 74.2567 310.875 70.9112 306.666C68.7631 303.956 67.3916 300.745 66.9235 297.342C57.2137 300.625 46.3392 298.096 39.0714 290.822C33.2985 285.046 30.4755 277.158 31.2556 269.071C29.3652 269.775 27.3224 270.094 25.3013 269.989C21.183 269.778 17.3042 267.845 14.659 264.681C12.0139 261.514 10.7983 257.356 11.3172 253.27C11.495 251.892 11.8615 250.56 12.4021 249.298C10.2214 247.893 8.26565 246.185 6.58567 244.215C5.05445 242.408 -2.42383 232.8 0.78737 220.925C2.9064 213.074 9.18365 206.115 16.4043 203.612C18.8934 202.752 21.4479 202.407 24.0023 202.578C24.3906 202.603 24.7897 202.643 25.1961 202.698C25.8057 200.775 26.6729 198.95 27.7723 197.273C31.9668 190.863 39.0496 187.136 46.7093 187.267C54.3726 187.409 61.3066 191.414 65.2617 197.981C66.9453 200.771 67.9939 203.931 68.3205 207.178C71.1253 204.925 74.8082 204.116 78.3496 205.02C82.6421 206.119 85.9512 209.645 86.7785 214.003C87.116 215.792 87.0289 217.617 86.5245 219.347C92.8489 215.628 100.233 214.391 107.461 215.864C117.091 217.82 125.117 224.394 128.923 233.453C132.729 242.509 131.815 252.842 126.478 261.096C123.139 266.256 118.194 270.301 112.49 272.565C112.787 272.783 113.074 273.008 113.335 273.232C116.601 276.019 118.415 280.242 118.187 284.534C117.958 288.823 115.705 292.832 112.16 295.255C110.052 296.699 107.602 297.527 105.048 297.661C104.387 301.888 102.319 305.81 99.1988 308.734C95.6247 312.09 90.8751 313.955 85.9984 313.955V313.951ZM67.7036 296.097L67.7653 296.678C68.1354 300.117 69.4707 303.375 71.6296 306.1C74.8154 310.105 79.5687 312.62 84.674 312.99C89.7793 313.363 94.8482 311.567 98.5747 308.066C101.637 305.196 103.636 301.322 104.199 297.156L104.25 296.772L104.638 296.761C107.152 296.699 109.573 295.916 111.641 294.501C114.954 292.237 117.058 288.492 117.272 284.487C117.483 280.478 115.788 276.53 112.74 273.929C112.479 273.708 112.2 273.486 111.902 273.272C111.673 273.109 111.459 272.968 111.256 272.841L110.451 272.344L111.34 272.021C117.21 269.898 122.312 265.838 125.705 260.599C130.879 252.603 131.764 242.585 128.078 233.809C124.388 225.029 116.612 218.654 107.276 216.76C99.8555 215.251 92.2684 216.684 85.9077 220.802L84.6631 221.607L85.24 220.24C86.0492 218.32 86.2705 216.223 85.8823 214.173C85.1167 210.164 82.0724 206.917 78.1246 205.905C74.5905 205.001 70.8967 205.952 68.2515 208.448L67.5404 209.123L67.4823 208.143C67.2827 204.726 66.245 201.377 64.4816 198.453C60.6898 192.158 54.0424 188.319 46.6948 188.181C39.3399 188.043 32.5619 191.628 28.5415 197.774C27.4167 199.49 26.5495 201.359 25.9581 203.336L25.8456 203.717L25.4537 203.659C24.9385 203.583 24.4305 203.525 23.9443 203.492C21.5132 203.329 19.0749 203.659 16.7055 204.479C9.75695 206.888 3.71555 213.593 1.67272 221.165C-1.41874 232.597 5.80555 241.878 7.28233 243.623C8.98409 245.622 10.9834 247.342 13.2221 248.735L13.5632 248.949L13.3927 249.316C12.8012 250.6 12.4094 251.968 12.2243 253.386C11.7345 257.221 12.8774 261.125 15.3593 264.093C17.8448 267.061 21.4842 268.879 25.3485 269.075C27.4857 269.18 29.6555 268.792 31.6112 267.939L32.3442 267.62L32.2462 268.414C31.2411 276.487 33.9661 284.418 39.7172 290.172C46.8726 297.331 57.6383 299.732 67.1521 296.289L67.7 296.09L67.7036 296.097Z" fill="#3D3B3B"></path>
<path d="M261.442 314.474C265.357 319.985 265.372 327.55 261.116 333.119C256.406 339.283 247.948 341.05 241.203 337.436C234.163 344.116 224.083 346.786 214.515 344.268C205.335 341.852 198.107 335.038 195.027 326.294C191.986 327.39 188.622 327.328 185.596 326.076C182.059 324.614 179.341 321.676 178.154 318.04C176.968 314.401 177.436 310.421 179.432 307.159C180.008 306.212 180.701 305.356 181.482 304.598C177.791 302.051 175.15 298.201 174.13 293.779C173.122 289.389 173.786 284.821 175.937 280.942C176.344 280.206 176.804 279.495 177.32 278.816C180.542 274.542 185.491 271.915 190.836 271.643C193.739 271.495 196.587 272.05 199.178 273.211C206.144 267.431 215.854 265.475 224.835 268.715C234.893 272.344 241.496 281.584 242.106 291.823C246.809 289.809 252.262 290.223 256.624 293.002C257.422 293.514 258.187 294.105 258.902 294.773C264.385 299.903 265.415 308.179 261.442 314.477V314.474Z" fill="#E0DFFE"></path>
<g style="mix-blend-mode:multiply">
<path d="M261.442 314.474C265.357 319.985 265.372 327.549 261.116 333.119C256.406 339.283 247.948 341.05 241.203 337.436C234.163 344.116 224.083 346.786 214.515 344.268C205.335 341.852 198.107 335.038 195.027 326.294C191.986 327.39 188.622 327.328 185.596 326.076C182.059 324.614 179.341 321.676 178.154 318.04C176.968 314.401 177.436 310.421 179.432 307.159C180.008 306.212 180.701 305.356 181.482 304.598C177.791 302.051 175.15 298.201 174.13 293.779C173.122 289.389 173.786 284.821 175.937 280.942C176.075 281.838 176.173 282.698 176.242 283.504C176.852 290.542 182.425 297.204 190.139 296.551C188.811 303.375 191.725 310.845 197.32 314.971C202.915 319.096 210.916 319.666 217.041 316.378C222.476 324.908 235.491 327.354 243.652 321.374C246.562 319.241 248.953 315.566 247.774 312.155C253.021 313.342 258.409 308.799 259.287 303.491C259.893 299.823 258.739 296.108 256.62 293.002C257.418 293.514 258.184 294.105 258.899 294.773C264.381 299.903 265.412 308.179 261.439 314.477L261.442 314.474Z" fill="#AEAECC"></path>
</g>
<path d="M221.645 345.6C219.225 345.6 216.79 345.295 214.41 344.667C205.328 342.276 198.017 335.619 194.776 326.817C191.718 327.818 188.419 327.691 185.437 326.457C181.783 324.948 178.985 321.926 177.762 318.167C176.536 314.408 177.015 310.316 179.08 306.945C179.58 306.125 180.172 305.356 180.847 304.652C177.251 302.029 174.733 298.22 173.728 293.873C172.701 289.407 173.357 284.745 175.578 280.743C175.992 279.988 176.471 279.255 176.993 278.566C180.295 274.187 185.335 271.513 190.814 271.233C193.641 271.092 196.5 271.607 199.109 272.732C206.329 266.858 216.213 265.171 224.972 268.327C234.817 271.879 241.634 280.826 242.473 291.224C247.211 289.392 252.542 289.911 256.841 292.65C257.665 293.176 258.452 293.79 259.182 294.464C264.715 299.642 265.851 308.005 261.932 314.456C265.891 320.221 265.702 327.785 261.442 333.365C256.674 339.609 248.235 341.507 241.272 337.933C235.927 342.9 228.837 345.596 221.645 345.596V345.6ZM195.281 325.772L195.419 326.164C198.496 334.897 205.673 341.518 214.624 343.876C223.895 346.318 233.975 343.738 240.923 337.146L241.137 336.943L241.399 337.084C248.053 340.647 256.206 338.88 260.789 332.879C264.886 327.517 265.016 320.217 261.108 314.72L260.949 314.495L261.098 314.263C264.976 308.117 263.935 300.048 258.627 295.078C257.937 294.435 257.19 293.855 256.406 293.354C252.175 290.658 246.888 290.23 242.269 292.208L241.732 292.436L241.696 291.852C241.083 281.541 234.414 272.612 224.697 269.107C216.13 266.016 206.453 267.714 199.443 273.534L199.247 273.697L199.014 273.592C196.46 272.449 193.644 271.915 190.861 272.061C185.625 272.329 180.81 274.883 177.654 279.07C177.153 279.73 176.699 280.431 176.304 281.149C174.181 284.973 173.553 289.429 174.537 293.695C175.531 297.998 178.085 301.753 181.721 304.268L182.131 304.551L181.772 304.899C181.003 305.646 180.335 306.484 179.783 307.381C177.846 310.548 177.396 314.39 178.546 317.92C179.696 321.451 182.323 324.288 185.756 325.706C188.673 326.915 191.917 326.991 194.889 325.917L195.277 325.775L195.281 325.772Z" fill="#3D3B3B"></path>
<path d="M60.5157 227.953L58.4402 215.356L56.3647 227.953L47.6019 229.825L56.3647 232.067L58.4402 244.675L60.5157 232.071L69.4816 229.927L60.5157 227.953Z" fill="#F7941D"></path>
<path d="M74.4453 244.498L73.2879 237.47L72.1267 244.498L67.2392 245.542L72.1267 246.794L73.2842 253.825L74.4453 246.794L79.4454 245.6L74.4453 244.498Z" fill="#F7941D"></path>
<path d="M164.515 244.498L163.357 237.47L162.2 244.498L157.312 245.542L162.2 246.794L163.357 253.825L164.515 246.794L169.515 245.6L164.515 244.498Z" fill="#F7941D"></path>
<path d="M218.808 287.219L217.193 277.423L215.578 287.219L208.764 288.674L215.578 290.419L217.193 300.222L218.808 290.423L225.778 288.754L218.808 287.219Z" fill="#F7941D"></path>
<path d="M319.124 191.117L317.509 181.317L315.898 191.117L309.084 192.571L315.895 194.317L317.509 204.12L319.124 194.317L326.098 192.651L319.124 191.117Z" fill="#FFC212"></path>
<path d="M164.729 43.175L162.254 28.1436L159.776 43.1714L149.322 45.4064L159.776 48.0839L162.254 63.1226L164.729 48.0876L175.426 45.5297L164.729 43.175Z" fill="#FFC212"></path>
</g>
<defs>
<clippath id="svg-770826118_40132_clip0_57_5590">
<rect fill="white" height="347" width="331"></rect>
</clippath>
</defs>
</svg>