<svg id="svg8906692669" viewbox="0 0 33 30">
<g id="ss8906692669_1" transform="translate(-0.001 0)">
<path d="M 13.554 10.706 C 12.732 10.324 12.129 9.524 11.551 8.893 C 9.776 6.881 7.912 4.945 6.167 2.906 C 4.963 1.268 7.306 -0.551 8.625 1.023 C 10.695 3.494 12.932 5.895 14.42 8.775 C 14.623 9.177 14.907 9.639 14.842 10.109 C 14.789 10.549 14.385 10.801 13.976 10.801 C 13.83 10.801 13.684 10.77 13.554 10.704 Z" fill='var(--token-6367dca9-02b9-4a70-a116-e05e0733684b, rgb(0, 0, 0)) /* {"name":"black"} */'></path>
<path d="M 19.592 10.416 C 17.807 9.33 20.455 2.436 21.298 0.906 C 22.143 -0.888 24.791 0.236 24.072 2.068 C 23.05 4.059 22.254 6.146 21.457 8.231 C 21.116 8.887 20.862 10.508 19.978 10.508 C 19.86 10.508 19.733 10.48 19.592 10.416 Z" fill='var(--token-6367dca9-02b9-4a70-a116-e05e0733684b, rgb(0, 0, 0)) /* {"name":"black"} */'></path>
<path d="M 6.945 17.049 C 5.66 16.956 4.385 16.763 3.116 16.545 C 2.434 16.425 1.748 16.3 1.071 16.147 C 0.368 15.988 -0.082 15.24 0.012 14.555 C 0.117 13.791 0.872 13.185 1.657 13.316 C 2.339 13.431 3.022 13.586 3.696 13.747 C 4.994 14.066 6.299 14.383 7.555 14.849 C 8.014 15.033 8.52 15.214 8.84 15.608 C 9.02 15.848 9.075 16.165 8.956 16.446 C 8.731 16.979 8.182 17.085 7.639 17.085 C 7.397 17.085 7.156 17.064 6.945 17.049 Z" fill='var(--token-6367dca9-02b9-4a70-a116-e05e0733684b, rgb(0, 0, 0)) /* {"name":"black"} */'></path>
<path d="M 8.05 29.801 C 7.351 29.411 7.118 28.475 7.52 27.795 C 8.578 25.834 9.792 23.92 11.361 22.32 C 11.922 21.755 13.466 20.281 13.936 21.618 C 14.004 21.988 13.82 22.381 13.674 22.711 C 13.224 23.71 12.631 24.637 12.086 25.586 C 11.386 26.801 10.731 28.039 10.072 29.277 C 9.82 29.738 9.3 30.001 8.782 30.001 C 8.527 30.001 8.272 29.937 8.05 29.802 Z" fill='var(--token-6367dca9-02b9-4a70-a116-e05e0733684b, rgb(0, 0, 0)) /* {"name":"black"} */'></path>
<path d="M 24.927 26.994 C 23.625 25.608 22.282 24.262 20.987 22.869 C 20.523 22.302 19.889 21.778 19.743 21.032 C 19.685 19.765 20.972 19.621 21.846 20.23 C 23.787 21.526 25.491 23.16 27.09 24.847 C 27.365 25.149 27.537 25.506 27.537 25.92 C 27.568 26.81 26.759 27.431 25.957 27.431 C 25.584 27.431 25.213 27.297 24.927 26.993 Z" fill='var(--token-6367dca9-02b9-4a70-a116-e05e0733684b, rgb(0, 0, 0)) /* {"name":"black"} */'></path>
<path d="M 31.268 16.461 C 29.205 16.086 27.123 15.81 25.044 15.541 C 23.171 15.411 23.009 13.42 24.879 13.083 C 27.138 12.738 29.445 13.109 31.682 13.461 C 32.082 13.53 32.434 13.714 32.683 14.036 C 33.468 14.986 32.688 16.482 31.515 16.482 C 31.434 16.482 31.353 16.476 31.268 16.461 Z" fill='var(--token-6367dca9-02b9-4a70-a116-e05e0733684b, rgb(0, 0, 0)) /* {"name":"black"} */'></path>
</g>
</svg>