<svg fill="none" height="314" id="svg283337888_37139" viewbox="0 0 254 314" width="254">
<g clip-path="url(#svg283337888_37139_clip0_61_7951)">
<path d="M83.9687 25.4204C92.1875 36.972 97.2087 47.3864 100.278 54.9178C105.083 66.7054 106.014 73.6341 106.258 78.3707C106.341 79.9515 106.429 82.8714 105.755 89.8114C104.691 100.774 104.782 105.557 98.4433 127.241C92.1733 148.684 89.5133 149.796 88.034 149.932C83.9602 150.302 79.8579 143.364 78.2762 139.094C76.171 133.405 76.9135 128.054 78.0571 119.823C78.225 118.615 78.3843 117.663 78.5379 116.849C79.0073 114.353 79.417 112.536 79.4625 112.346C79.8921 110.489 80.626 102.017 76.8936 90.4312C72.7344 77.5206 65.315 67.8341 60.877 62.7165L83.9687 25.4233V25.4204Z" fill="#F9B0C3"></path>
<path d="M108.935 99.4895L139.973 122.857C144.055 125.93 144.869 131.728 141.796 135.805L81.1125 216.305C78.0372 220.385 72.2366 221.198 68.157 218.127L37.1197 194.76C33.0373 191.686 32.2237 185.889 35.2961 181.812L95.9797 101.312C99.055 97.232 104.856 96.4189 108.935 99.4895Z" fill="#2D876B"></path>
<path d="M130.536 144.371L86.2418 203.13C80.3643 210.926 69.2779 212.484 61.4773 206.61L50.0381 197.998C42.2376 192.124 40.6786 181.044 46.556 173.249L90.8504 114.49C96.7279 106.694 107.814 105.136 115.615 111.01L127.054 119.622C134.855 125.495 136.414 136.575 130.536 144.371Z" fill="#51AF95"></path>
<path d="M42.3058 177.775C48.8718 182.719 50.1832 192.044 45.2389 198.606C44.8691 199.095 44.4765 199.556 44.0611 199.985L37.1197 194.759C33.0373 191.686 32.2237 185.889 35.2961 181.812L39.5719 176.14C40.5221 176.575 41.4382 177.121 42.3058 177.775Z" fill="#2D876B"></path>
<path d="M108.935 99.4894L115.877 104.715C115.578 105.232 115.242 105.739 114.875 106.228C109.931 112.789 100.597 114.1 94.031 109.159C93.1633 108.505 92.3867 107.774 91.7039 106.981L95.9797 101.309C99.055 97.2291 104.856 96.416 108.935 99.4865V99.4894Z" fill="#2D876B"></path>
<path d="M133.031 117.631L139.973 122.857C144.055 125.93 144.869 131.728 141.796 135.805L137.52 141.477C136.57 141.042 135.654 140.496 134.786 139.842C128.22 134.898 126.909 125.572 131.853 119.01C132.223 118.521 132.616 118.061 133.031 117.631Z" fill="#2D876B"></path>
<path d="M83.0584 208.461C83.9261 209.115 84.7027 209.845 85.3855 210.638L81.1096 216.31C78.0344 220.39 72.2337 221.203 68.1542 218.133L61.2127 212.907C61.5114 212.39 61.8471 211.884 62.2141 211.395C67.1613 204.833 76.4924 203.522 83.0584 208.463V208.461Z" fill="#2D876B"></path>
<path d="M73.7102 220.433C71.679 220.433 69.6307 219.799 67.8868 218.485L36.8494 195.118C32.5793 191.902 31.7201 185.812 34.9377 181.545L95.6213 101.045C97.1802 98.9776 99.4504 97.6385 102.016 97.2774C104.583 96.9163 107.134 97.5759 109.203 99.134L140.24 122.502C144.51 125.717 145.369 131.807 142.152 136.075L81.4681 216.575C79.5649 219.099 76.6546 220.43 73.7102 220.433ZM103.388 98.0735C102.975 98.0735 102.56 98.1019 102.142 98.1616C99.8117 98.4886 97.7492 99.7026 96.3353 101.582L35.6517 182.082C32.7301 185.957 33.5095 191.487 37.3871 194.407L68.4244 217.775C72.302 220.694 77.8352 219.918 80.7569 216.04L141.44 135.54C144.362 131.665 143.585 126.135 139.705 123.215L108.668 99.8476C107.126 98.6847 105.285 98.0735 103.388 98.0735Z" fill="#3D3B3B"></path>
<path d="M104.4 174.655C113.157 165.903 113.157 151.714 104.4 142.963C95.6436 134.211 81.4461 134.211 72.6893 142.963C63.9325 151.714 63.9325 165.903 72.6893 174.655C81.4461 183.406 95.6436 183.406 104.4 174.655Z" fill="#2D876B"></path>
<path d="M99.0834 144.832C91.3597 139.015 80.3785 140.558 74.5608 148.28C68.7402 155.999 70.285 166.974 78.0116 172.788C85.7354 178.605 96.7165 177.061 102.534 169.342C108.355 161.623 106.81 150.649 99.0834 144.834V144.832Z" fill="#51AF95"></path>
<path d="M91.4535 30.0376L48.6356 50.8748L39.5833 0H88.7054L91.4535 30.0376Z" fill="#F9B0C3"></path>
<path d="M64.8883 35.8574L64.3051 35.1182C69.6847 30.8734 76.6774 28.8576 83.4908 29.5912L83.3912 30.5265C76.8196 29.8214 70.0773 31.7633 64.8911 35.8574H64.8883Z" fill="#773838"></path>
<path d="M91.4535 30.0347L105.666 80.7247C105.666 80.7247 82.5378 95.3468 82.5378 95.3497C74.208 101.386 66.3306 107.962 58.3963 114.518C56.0664 116.443 59.594 120.895 61.0079 122.28C61.0079 122.28 62.1971 123.443 65.352 127.42C66.4985 128.864 67.79 131.019 68.6065 134.249C69.019 135.87 70.1797 137.192 71.7415 137.795C76.6973 139.711 83.3941 143.319 88.5689 150.145C88.8903 150.569 94.0139 157.461 95.5387 164.108C96.2244 167.096 96.1845 170.036 94.6512 172.316C94.398 172.691 93.3283 175.665 91.2146 175.105C85.7724 173.661 80.3871 171.648 75.1554 169.686C74.9591 169.612 74.7599 169.538 74.5636 169.461C72.8738 168.822 71.1896 168.162 69.514 167.48C55.6852 161.856 43.8364 146.827 35.1965 135.051C33.6546 132.95 30.8212 129.925 28.4798 125.109C27.9023 123.92 25.9877 119.843 24.9124 114.251C22.3065 100.703 26.6307 88.7423 30.0701 79.232C31.4499 75.4166 32.7699 72.6076 33.5864 70.9586C35.4469 67.1886 37.6175 63.5721 40.0783 60.1661C41.8307 57.738 44.7097 52.7484 47.4749 51.4036C47.4892 51.3979 91.4535 30.0347 91.4535 30.0347Z" fill="#F9B0C3"></path>
<path d="M74.9904 170.127C73.1014 169.419 71.1982 168.674 69.3376 167.918C56.0095 162.499 44.4082 148.402 34.8182 135.33C34.474 134.861 34.0728 134.354 33.6063 133.766C32.0388 131.793 29.8937 129.089 28.0588 125.313C27.1371 123.414 25.4387 119.462 24.4544 114.339C21.8257 100.664 26.1528 88.6911 29.632 79.0728C30.6874 76.1558 31.8425 73.4321 33.1682 70.751C34.2435 68.5704 36.2463 64.5104 39.7056 59.8846C42.2347 56.5013 45.1336 53.3511 48.3284 50.5222L48.9543 51.2273C45.8079 54.0136 42.9516 57.1183 40.4595 60.4476C37.0514 65.0051 35.0742 69.0139 34.0131 71.169C32.7045 73.8188 31.5608 76.5112 30.5196 79.3941C27.0802 88.9072 22.8015 100.743 25.3818 114.163C26.3462 119.181 28.0048 123.047 28.9094 124.904C30.6988 128.586 32.8097 131.241 34.3488 133.183C34.8011 133.755 35.2307 134.292 35.5834 134.775C45.0966 147.743 56.5898 161.717 69.6989 167.048C71.5538 167.801 73.4456 168.543 75.3289 169.248L74.9989 170.129L74.9904 170.127Z" fill="#773838"></path>
<path d="M91.7523 175.651C91.5446 175.651 91.3255 175.622 91.0951 175.563C85.5562 174.093 79.9433 171.986 74.9904 170.13L75.3204 169.248C80.2505 171.099 85.8406 173.194 91.3341 174.653C92.6114 174.991 93.4649 173.635 94.068 172.415C94.1505 172.248 94.2045 172.14 94.2586 172.06C99.0607 164.918 88.3015 150.58 88.1933 150.435C84.0854 145.019 78.4924 140.917 71.5709 138.241C69.8782 137.587 68.598 136.14 68.1513 134.372C67.4942 131.779 66.4274 129.541 64.9822 127.722C61.9553 123.903 60.7405 122.686 60.6808 122.627H60.6779C60.5556 122.502 57.6624 119.587 57.9269 114.501C58.1403 110.376 67.15 105.144 81.3344 103.888L81.4169 104.826C68.3647 105.983 59.0592 110.882 58.8686 114.552C58.6268 119.221 61.3123 121.927 61.3408 121.956C61.5086 122.104 61.7846 122.413 62.3535 123.059C62.9879 123.781 64.0889 125.077 65.7247 127.139C67.2524 129.066 68.3789 131.423 69.0674 134.144C69.4401 135.617 70.504 136.822 71.9151 137.368C79.0045 140.109 84.734 144.314 88.9501 149.872C89.4138 150.481 100.221 164.895 95.0466 172.592C95.0267 172.623 94.9669 172.742 94.9186 172.839C94.5175 173.649 93.5246 175.659 91.7551 175.659L91.7523 175.651Z" fill="#773838"></path>
<path d="M91.3483 90.0076L90.5489 89.5072C93.5872 84.6711 97.3566 76.7444 98.0735 66.4552C98.8331 55.5518 95.8574 46.7666 93.2259 41.3135L94.0737 40.9041C96.7535 46.4595 99.7861 55.4125 99.0123 66.5206C98.2812 77.0032 94.4406 85.0805 91.3454 90.0076H91.3483Z" fill="#773838"></path>
<path d="M31.8965 112.46C33.6176 115.687 37.8622 122.544 46.2317 127.281C51.1903 130.087 55.8616 131.165 59.025 131.614C60.897 131.702 64.1856 131.577 67.6421 129.834C75.0729 126.092 76.8879 118.109 77.1411 116.903C77.0813 113.804 76.5778 108.57 73.9036 102.785C70.6292 95.6995 65.7958 91.466 63.207 89.4929C53.7564 92.8592 44.3058 96.2254 34.8552 99.5917L31.8937 112.457L31.8965 112.46Z" fill="#F9B0C3"></path>
<path d="M59.887 132.106C59.594 132.106 59.2982 132.1 59.0051 132.086H58.9596C54.3509 131.426 49.9898 129.951 45.9985 127.693C38.2917 123.332 33.8481 117.122 31.4783 112.684L32.309 112.241C34.619 116.571 38.9489 122.624 46.4622 126.874C50.3426 129.069 54.5842 130.508 59.0677 131.148C62.0235 131.281 64.9139 130.684 67.4287 129.416C74.2194 125.996 76.208 119.01 76.6688 116.861C76.5693 112.019 75.4939 107.351 73.4769 102.986C70.4841 96.5098 66.086 92.2792 62.9225 89.874L63.4943 89.1262C66.7431 91.5997 71.2579 95.9412 74.3332 102.594C76.4128 107.095 77.5166 111.908 77.6133 116.901V116.955L77.6019 117.006C77.1411 119.195 75.0729 126.621 67.8526 130.26C65.4373 131.477 62.6978 132.111 59.8842 132.111L59.887 132.106Z" fill="#773838"></path>
<path d="M39.9218 97.1324C41.643 100.359 45.8875 107.217 54.2571 111.954C59.2156 114.76 63.8869 115.837 67.0504 116.286C68.9223 116.375 72.2109 116.249 75.6674 114.507C83.0982 110.765 84.9132 102.782 85.1664 101.576C85.4566 99.5717 85.5448 97.3314 85.2432 94.9232C83.7582 83.1186 73.9975 76.0364 71.2352 74.1685C61.7845 77.5347 52.3339 80.901 42.8833 84.2672L39.9218 97.1324Z" fill="#F9B0C3"></path>
<path d="M67.9095 116.778C67.6165 116.778 67.3235 116.773 67.0276 116.758H66.9821C62.3734 116.099 58.0123 114.623 54.0209 112.366C46.3114 108.004 41.8706 101.795 39.5008 97.3569L40.3315 96.9134C42.6415 101.243 46.9714 107.296 54.4847 111.547C58.365 113.742 62.6067 115.18 67.0902 115.82C70.046 115.954 72.9364 115.357 75.4512 114.089C82.296 110.64 84.2617 103.569 84.7027 101.482C86.4779 94.4768 82.6743 87.1586 76.4071 85.4812C71.8553 84.2643 66.6464 86.3 63.4431 90.5476L62.6892 89.979C66.123 85.43 71.7358 83.2579 76.6489 84.5714C83.4054 86.3768 87.5134 94.2181 85.6216 101.696C85.1636 103.868 83.0982 111.294 75.878 114.93C73.4627 116.147 70.7231 116.781 67.9067 116.781L67.9095 116.778Z" fill="#773838"></path>
<path d="M71.2665 85.1743C70.1996 85.1743 68.8739 84.9924 67.4856 84.3555C66.2993 83.8125 65.2183 82.9965 64.362 81.9929L65.0789 81.3816C65.847 82.28 66.8143 83.0135 67.8782 83.4997C69.5766 84.2759 71.1726 84.2958 72.211 84.1792L72.3191 85.1146C72.009 85.1487 71.6562 85.1743 71.2693 85.1743H71.2665Z" fill="#773838"></path>
<path d="M91.7522 175.651C91.5446 175.651 91.3255 175.623 91.0951 175.563C85.5533 174.09 79.9404 171.986 74.9904 170.13L74.7798 170.05C74.6518 170.002 74.5238 169.953 74.3929 169.905L74.006 169.757L74.1028 169.356C74.5437 167.522 75.6959 165.925 77.2634 164.978C79.1268 163.849 81.3031 163.505 83.3741 163.303C85.7923 163.064 88.2531 162.991 90.6883 163.084C92.6455 163.158 94.2187 163.34 95.6412 163.656L95.9313 163.721L95.9968 164.011C96.8104 167.551 96.4889 170.437 95.0409 172.586C95.021 172.617 94.9612 172.737 94.9129 172.833C94.5118 173.644 93.5189 175.654 91.7494 175.654L91.7522 175.651ZM75.1326 169.174L75.3232 169.245C80.2533 171.093 85.8406 173.192 91.3369 174.65C92.6085 174.988 93.4677 173.632 94.0708 172.41C94.1533 172.242 94.2073 172.134 94.2614 172.054C95.5188 170.184 95.8175 167.648 95.1462 164.506C93.8574 164.241 92.4179 164.085 90.6541 164.02C88.2645 163.929 85.8463 164 83.4709 164.236C81.5079 164.429 79.4596 164.748 77.7556 165.78C76.538 166.519 75.5792 167.767 75.1354 169.174H75.1326Z" fill="#773838"></path>
<path d="M60.0634 144.055L59.3181 143.478C60.51 141.937 61.904 140.561 63.4573 139.387C65.1159 138.133 66.9451 137.124 68.891 136.382L69.2267 137.263C67.3633 137.971 65.6137 138.94 64.0263 140.137C62.5384 141.26 61.207 142.577 60.0634 144.055Z" fill="#773838"></path>
<path d="M65.4971 145.721L64.5896 145.468C65.4658 142.312 67.5397 139.472 70.2736 137.672L70.7914 138.46C68.2424 140.137 66.3136 142.784 65.4942 145.721H65.4971Z" fill="#773838"></path>
<path d="M190.639 186.452C191.137 181.118 191.843 177.226 192.341 171.892C192.719 167.821 191.823 163.724 189.723 160.216C188.745 158.581 187.544 156.858 186.065 155.135C184.89 153.762 183.695 152.573 182.534 151.544C179.448 148.803 180.153 143.805 183.897 142.071C183.951 142.045 184.008 142.02 184.062 141.994C190.583 139.094 196.821 143.308 197.2 143.572C201.049 146.267 204.337 149.756 206.992 153.622C209.239 156.895 212.3 161.592 212.75 165.632C213.455 171.969 213.885 179.151 213.74 187.032C213.558 196.841 212.525 205.595 211.199 213.046C204.414 204.662 197.422 194.836 190.637 186.452H190.639Z" fill="#F9B0C3"></path>
<path d="M211.637 213.152L210.767 212.941C211.418 210.249 211.737 207.417 212.044 204.676C212.209 203.212 212.38 201.697 212.599 200.21C212.946 196.522 213.119 192.806 213.302 188.871L213.356 187.697C213.356 187.089 213.361 186.463 213.367 185.838C213.412 178.892 213.452 172.33 212.064 165.555C210.986 159.809 207.677 154.2 201.948 148.397C195.396 141.761 189.371 139.748 184.042 142.415C181.32 143.777 180.978 146.372 181.018 147.82C181.271 149.221 181.758 150.177 182.551 150.828L182.574 150.848C185.857 153.918 188.509 157.29 190.679 161.16C192.452 164.321 193.205 167.912 192.858 171.548C192.574 174.534 192.349 176.811 192.13 178.935L191.24 178.844C191.459 176.723 191.683 174.445 191.968 171.466C192.298 168.011 191.584 164.6 189.9 161.6C187.777 157.816 185.186 154.518 181.977 151.513C181.024 150.725 180.421 149.56 180.136 147.948L180.131 147.885C180.037 145.067 181.32 142.784 183.647 141.619C189.282 138.798 195.831 140.928 202.588 147.771C208.445 153.705 211.834 159.465 212.946 165.384C214.351 172.245 214.311 178.849 214.266 185.843C214.263 186.466 214.257 187.092 214.255 187.72L214.2 188.911C214.016 192.855 213.842 196.582 213.489 200.315C213.27 201.81 213.1 203.317 212.935 204.773C212.624 207.539 212.3 210.402 211.637 213.146V213.152Z" fill="#773838"></path>
<path d="M226.405 204.787C229.17 198.967 232.288 190.884 234.109 180.891C235.417 173.703 235.745 167.232 235.634 161.836C235.58 159.124 234.957 156.457 233.802 154.003C231.83 149.818 229.221 145.11 225.762 140.228C223.085 136.45 220.351 133.209 217.765 130.468C214.385 126.883 208.471 127.414 205.913 131.625C205.874 131.688 205.837 131.753 205.8 131.818C203.638 135.625 205.595 139.617 205.754 139.924C207.253 143.023 208.753 146.159 210.246 149.335C210.824 150.56 211.395 151.783 211.962 153.003C213.603 156.534 214.266 160.443 213.879 164.318C213.302 170.118 212.323 176.504 210.733 183.319C209.29 189.503 207.563 195.103 205.765 200.076C212.644 201.648 219.523 203.218 226.399 204.79L226.405 204.787Z" fill="#F9B0C3"></path>
<path d="M226.655 205.305L205.177 200.397L205.35 199.923C207.322 194.475 208.989 188.851 210.303 183.216C211.751 177.004 212.807 170.633 213.438 164.273C213.816 160.474 213.165 156.645 211.56 153.19C210.994 151.97 210.423 150.751 209.845 149.525C208.374 146.398 206.861 143.234 205.353 140.12C205.125 139.674 203.151 135.577 205.413 131.597C205.45 131.528 205.492 131.46 205.532 131.392C206.804 129.297 208.943 127.943 211.404 127.685C213.922 127.417 216.357 128.321 218.092 130.161C220.988 133.231 223.691 136.532 226.129 139.97C229.213 144.322 231.932 148.979 234.208 153.813C235.395 156.335 236.026 159.03 236.083 161.828C236.214 168.236 235.696 174.676 234.55 180.973C233.039 189.272 230.436 197.35 226.812 204.983L226.658 205.307L226.655 205.305ZM206.363 199.749L226.155 204.27C229.665 196.806 232.191 188.914 233.668 180.808C234.803 174.57 235.315 168.188 235.187 161.842C235.133 159.172 234.53 156.596 233.398 154.191C231.144 149.406 228.453 144.792 225.398 140.484C222.985 137.078 220.308 133.811 217.441 130.772C215.899 129.137 213.734 128.336 211.498 128.572C209.319 128.802 207.424 129.999 206.297 131.853C206.26 131.912 206.226 131.972 206.192 132.032C204.127 135.665 206.07 139.552 206.155 139.714C207.669 142.838 209.182 146.006 210.653 149.139C211.23 150.364 211.802 151.587 212.368 152.806C214.041 156.403 214.718 160.397 214.326 164.352C213.688 170.749 212.627 177.161 211.171 183.41C209.888 188.917 208.269 194.41 206.36 199.743L206.363 199.749Z" fill="#773838"></path>
<path d="M240.982 314H176.037L184.529 254.516H232.49L240.982 314Z" fill="#F9B0C3"></path>
<path d="M252.196 149.818C251.929 151.621 251.423 160.352 250.643 177.829C250.353 184.362 250.47 184.263 248.905 208.992C248.472 215.841 247.884 224.16 244.205 234.353C239.867 246.379 233.517 254.872 229.119 259.884H187.163C183.835 256.799 180.131 252.867 176.537 247.971C175.94 247.155 175.365 246.345 174.816 245.538C169.562 237.819 166.023 229.073 164.265 219.904C163.158 214.135 161.551 209.578 160.091 206.175C158.302 202.009 155.323 196.303 153.858 193.449C153.298 192.36 152.959 191.683 152.988 191.669C153.048 191.638 153.352 192.135 153.045 191.618C149.324 185.377 149.284 182.224 149.284 182.224C149.489 179.876 151.261 177.425 153.488 176.336C153.651 176.256 153.816 176.185 153.981 176.12C159.093 174.147 165.175 179.856 166.196 180.817C172.521 186.75 175.18 196.354 179.354 199.601C180.799 200.724 182.398 201.543 182.398 201.543C182.409 201.549 182.421 201.555 182.435 201.563C184.685 202.698 187.436 201.637 188.352 199.291C190.619 193.469 190.674 188.374 190.634 186.452C202.226 187.234 213.816 188.016 225.406 188.8C226.445 180.538 230.063 154.282 237.625 142.307C239.013 140.109 241.807 135.682 245.613 135.731C248.251 135.768 250.563 137.943 251.721 139.958C253.434 142.935 252.771 145.92 252.191 149.821L252.196 149.818Z" fill="#F9B0C3"></path>
<path d="M179.086 199.951C178.802 199.729 178.526 199.485 178.242 199.198C176.227 197.17 174.839 194.563 173.496 192.039C173.055 191.211 172.6 190.355 172.136 189.554C170.518 186.748 168.256 183.171 165.101 180.416C161.682 177.431 158.692 176.043 155.981 176.16C154.026 176.245 152.114 177.399 150.868 179.247C150.297 180.095 149.639 181.357 149.765 182.554C149.904 183.87 150.806 186.77 154.316 193.108C154.419 193.292 154.487 193.415 154.51 193.463L153.713 193.87C153.69 193.824 153.628 193.713 153.534 193.54C150.655 188.345 149.087 184.681 148.874 182.648C148.72 181.184 149.469 179.719 150.126 178.747C151.531 176.666 153.705 175.367 155.941 175.267C158.899 175.139 162.088 176.6 165.69 179.745C168.945 182.588 171.26 186.241 172.91 189.11C173.38 189.926 173.838 190.788 174.284 191.621C175.599 194.086 176.956 196.636 178.876 198.569C179.135 198.828 179.382 199.053 179.636 199.249L179.086 199.954V199.951Z" fill="#773838"></path>
<path d="M225.856 188.854L224.968 188.743C226.561 176.055 230.277 153.116 237.252 142.068C238.646 139.862 241.534 135.284 245.554 135.284C245.576 135.284 245.602 135.284 245.625 135.284C248.549 135.321 250.95 137.707 252.117 139.737L251.34 140.183C250.208 138.213 247.997 136.211 245.613 136.18C245.593 136.18 245.574 136.18 245.556 136.18C242.029 136.18 239.318 140.476 238.009 142.546C231.125 153.449 227.44 176.239 225.856 188.854Z" fill="#773838"></path>
<path d="M206.832 263.887C203.763 263.887 200.696 263.6 197.655 263.026L197.82 262.147C203.268 263.176 208.804 263.265 214.28 262.417C219.671 261.581 224.846 259.858 229.662 257.294L230.083 258.084C225.179 260.694 219.907 262.451 214.42 263.301C211.899 263.694 209.364 263.887 206.832 263.887Z" fill="#773838"></path>
<path d="M192.52 196.317L192.215 195.476C199.131 192.982 206.306 191.103 213.54 189.886C223.094 188.28 232.857 187.811 242.555 188.487L242.493 189.38C232.863 188.706 223.173 189.173 213.688 190.768C206.508 191.976 199.384 193.841 192.52 196.317Z" fill="#773838"></path>
<path d="M206.027 246.519L205.182 246.223C206.357 242.874 208.01 236.104 205.871 228.391C202.611 216.637 192.958 210.98 190.079 209.527L190.483 208.728C193.447 210.223 203.376 216.043 206.733 228.152C208.938 236.101 207.236 243.073 206.027 246.519Z" fill="#773838"></path>
<path d="M211.615 226.62L210.738 226.443C211.472 222.827 212.778 219.387 214.622 216.214C216.949 212.205 220.035 208.765 223.799 205.984L224.331 206.703C220.667 209.41 217.663 212.762 215.395 216.663C213.603 219.751 212.331 223.103 211.615 226.622V226.62Z" fill="#773838"></path>
<path d="M154.134 193.801L153.591 193.09C153.964 192.803 154.291 192.496 154.587 192.149C157.471 188.772 156.882 182.511 153.119 176.572L153.875 176.094C157.852 182.366 158.413 189.053 155.269 192.732C154.936 193.122 154.555 193.483 154.137 193.801H154.134Z" fill="#773838"></path>
<path d="M177.836 186.498C187.5 184.218 193.485 174.54 191.204 164.882C188.923 155.224 179.24 149.242 169.576 151.522C159.911 153.801 153.926 163.479 156.207 173.137C158.488 182.796 168.171 188.777 177.836 186.498Z" fill="#FFC212"></path>
<path d="M173.71 187.148C163.696 187.148 155.548 179.006 155.548 169.001C155.548 158.996 163.696 150.85 173.71 150.85C183.724 150.85 191.871 158.993 191.871 169.001C191.871 179.009 183.724 187.148 173.71 187.148ZM173.71 151.211C163.895 151.211 155.909 159.192 155.909 169.001C155.909 178.81 163.895 186.79 173.71 186.79C183.524 186.79 191.51 178.81 191.51 169.001C191.51 159.192 183.524 151.211 173.71 151.211Z" fill="#3D3B3B"></path>
<path d="M173.71 185.184C182.653 185.184 189.903 177.938 189.903 169.001C189.903 160.063 182.653 152.818 173.71 152.818C164.767 152.818 157.517 160.063 157.517 169.001C157.517 177.938 164.767 185.184 173.71 185.184Z" fill="#F7941D"></path>
<path d="M173.71 185.363C164.68 185.363 157.338 178.022 157.338 169.001C157.338 159.98 164.683 152.636 173.71 152.636C182.736 152.636 190.082 159.977 190.082 169.001C190.082 178.025 182.736 185.363 173.71 185.363ZM173.71 152.997C164.879 152.997 157.696 160.176 157.696 169.001C157.696 177.826 164.879 185.005 173.71 185.005C182.54 185.005 189.723 177.826 189.723 169.001C189.723 160.176 182.54 152.997 173.71 152.997Z" fill="#3D3B3B"></path>
<path d="M173.183 177.766H171.377V175.062C170.273 174.943 169.178 174.997 168.068 174.98C168.125 174.63 168.182 174.297 168.239 173.965C168.287 173.68 168.339 173.396 168.376 173.109C168.39 172.995 168.444 172.964 168.549 172.967C168.922 172.97 169.292 172.972 169.664 172.967C170.085 172.961 170.21 172.839 170.21 172.424C170.21 169.979 170.21 167.531 170.21 165.086C170.21 164.594 169.92 164.287 169.425 164.25C169.215 164.233 169.001 164.238 168.788 164.235C168.578 164.235 168.364 164.235 168.142 164.235V162.527H171.363V159.752H173.175V162.453H174.469V159.749H176.102V162.504C176.532 162.572 176.95 162.621 177.36 162.712C178.091 162.871 178.788 163.121 179.345 163.65C179.829 164.105 180.045 164.685 180.111 165.327C180.159 165.793 180.136 166.257 179.985 166.706C179.8 167.263 179.439 167.676 178.95 167.988C178.876 168.034 178.802 168.077 178.748 168.108C179.103 168.264 179.485 168.395 179.826 168.591C180.591 169.029 181.001 169.714 181.078 170.587C181.149 171.389 181.066 172.171 180.731 172.913C180.364 173.723 179.729 174.235 178.913 174.547C178.088 174.866 177.229 175.002 176.35 175.039C176.293 175.039 176.236 175.045 176.179 175.051C176.162 175.051 176.145 175.062 176.111 175.071V177.763H174.478V175.108H173.183V177.766ZM173.189 169.407V173.055C173.775 173.055 174.35 173.08 174.919 173.049C175.624 173.009 176.321 172.904 176.961 172.566C177.838 172.102 178.054 171.016 177.419 170.254C177.092 169.862 176.637 169.714 176.176 169.592C175.2 169.336 174.205 169.396 173.192 169.407H173.189ZM173.186 167.747C173.309 167.747 173.414 167.747 173.522 167.747C174.341 167.758 175.163 167.75 175.946 167.465C176.387 167.306 176.774 167.053 176.933 166.575C177.195 165.799 176.825 165.017 176.062 164.707C175.559 164.5 175.03 164.434 174.495 164.412C174.062 164.392 173.627 164.409 173.186 164.409V167.75V167.747Z" fill="#3D3B3B"></path>
<path d="M172.29 177.664H170.484V174.96C169.38 174.84 168.285 174.894 167.175 174.877C167.232 174.528 167.289 174.195 167.346 173.862C167.394 173.578 167.445 173.294 167.482 173.007C167.496 172.893 167.551 172.862 167.656 172.864C168.028 172.867 168.398 172.87 168.771 172.864C169.192 172.859 169.317 172.736 169.317 172.321C169.317 169.876 169.317 167.428 169.317 164.983C169.317 164.491 169.027 164.184 168.532 164.147C168.321 164.13 168.108 164.136 167.895 164.133C167.684 164.133 167.471 164.133 167.249 164.133V162.424H170.469V159.65H172.282V162.351H173.576V159.647H175.209V162.402C175.638 162.47 176.057 162.518 176.466 162.609C177.197 162.768 177.894 163.019 178.452 163.547C178.936 164.002 179.152 164.582 179.217 165.225C179.266 165.691 179.243 166.155 179.092 166.604C178.907 167.161 178.546 167.573 178.057 167.886C177.983 167.932 177.909 167.974 177.855 168.005C178.21 168.162 178.591 168.293 178.933 168.489C179.698 168.927 180.108 169.612 180.185 170.485C180.256 171.286 180.173 172.068 179.837 172.81C179.47 173.621 178.836 174.132 178.02 174.445C177.195 174.764 176.335 174.9 175.456 174.937C175.399 174.937 175.343 174.943 175.286 174.948C175.269 174.948 175.252 174.96 175.217 174.968V177.661H173.584V175.005H172.29V177.664ZM172.296 169.305V172.953C172.882 172.953 173.456 172.978 174.025 172.947C174.731 172.907 175.428 172.802 176.068 172.464C176.944 172 177.16 170.914 176.526 170.152C176.199 169.76 175.744 169.612 175.283 169.49C174.307 169.234 173.311 169.293 172.299 169.305H172.296ZM172.293 167.644C172.415 167.644 172.52 167.644 172.629 167.644C173.448 167.656 174.27 167.647 175.052 167.363C175.493 167.204 175.88 166.951 176.04 166.473C176.301 165.697 175.931 164.915 175.169 164.605C174.666 164.398 174.136 164.332 173.602 164.309C173.169 164.29 172.734 164.307 172.293 164.307V167.647V167.644Z" fill="#FFC212"></path>
<path d="M172.472 177.846H170.304V175.125C169.587 175.059 168.859 175.062 168.154 175.062C167.829 175.062 167.502 175.062 167.175 175.059H166.965L167.203 173.626C167.24 173.413 167.275 173.2 167.306 172.984C167.323 172.847 167.4 172.685 167.653 172.685H167.659C168.028 172.688 168.398 172.691 168.768 172.685C169.092 172.68 169.135 172.637 169.135 172.324C169.135 169.879 169.135 167.431 169.135 164.986C169.135 164.594 168.916 164.361 168.518 164.329C168.358 164.318 168.196 164.318 168.034 164.315H167.892C167.747 164.315 167.602 164.315 167.451 164.315H167.067V162.248H170.287V159.473H172.461V162.174H173.394V159.47H175.388V162.254C175.471 162.265 175.553 162.279 175.636 162.291C175.923 162.333 176.219 162.376 176.506 162.439C177.132 162.575 177.931 162.811 178.577 163.42C179.052 163.869 179.32 164.454 179.399 165.211C179.456 165.754 179.414 166.229 179.266 166.666C179.089 167.198 178.748 167.639 178.253 167.98C178.256 167.98 178.261 167.983 178.264 167.986C178.517 168.091 178.782 168.196 179.03 168.338C179.835 168.799 180.287 169.518 180.369 170.476C180.449 171.386 180.33 172.176 180.005 172.893C179.641 173.7 179.012 174.266 178.091 174.621C177.325 174.917 176.466 175.082 175.471 175.125C175.448 175.125 175.428 175.125 175.405 175.128V177.848H173.411V175.193H172.475V177.851L172.472 177.846ZM170.666 177.484H172.111V174.826H173.767V177.482H175.038V174.835L175.166 174.795C175.212 174.781 175.237 174.772 175.271 174.766C175.331 174.761 175.391 174.758 175.451 174.755C176.409 174.712 177.229 174.556 177.957 174.275C178.788 173.953 179.351 173.45 179.675 172.734C179.974 172.077 180.082 171.343 180.008 170.496C179.934 169.663 179.544 169.04 178.847 168.64C178.623 168.512 178.37 168.409 178.125 168.31C178.011 168.264 177.894 168.216 177.783 168.168L177.462 168.025L177.818 167.818C177.86 167.792 177.912 167.764 177.963 167.733C178.443 167.426 178.759 167.036 178.924 166.547C179.055 166.16 179.092 165.734 179.041 165.242C178.973 164.574 178.739 164.062 178.33 163.675C177.746 163.127 177.007 162.911 176.426 162.783C176.151 162.723 175.875 162.68 175.582 162.638C175.448 162.618 175.314 162.598 175.178 162.575L175.027 162.55V159.82H173.755V162.524H172.102V159.823H170.651V162.598H167.431V163.946H167.454C167.605 163.946 167.753 163.946 167.9 163.946H168.04C168.211 163.946 168.378 163.946 168.549 163.96C169.135 164.002 169.502 164.392 169.502 164.975C169.502 167.42 169.502 169.868 169.502 172.313C169.502 172.825 169.3 173.026 168.78 173.035C168.41 173.041 168.037 173.041 167.667 173.035C167.636 173.26 167.599 173.47 167.565 173.678L167.394 174.693C167.65 174.693 167.903 174.693 168.157 174.693C168.925 174.693 169.718 174.687 170.506 174.772L170.668 174.789V177.473L170.666 177.484ZM173.363 173.143C173.183 173.143 173.007 173.143 172.833 173.137C172.654 173.137 172.478 173.132 172.296 173.132H172.117V169.126L172.677 169.117C173.55 169.1 174.449 169.083 175.326 169.313C175.803 169.438 176.298 169.598 176.663 170.033C177.001 170.436 177.138 170.954 177.038 171.451C176.939 171.949 176.617 172.373 176.151 172.62C175.425 173.004 174.64 173.092 174.034 173.123C173.809 173.134 173.584 173.14 173.36 173.14L173.363 173.143ZM172.478 172.776C172.597 172.776 172.72 172.776 172.839 172.779C173.246 172.785 173.63 172.79 174.017 172.768C174.586 172.736 175.323 172.654 175.986 172.304C176.355 172.108 176.611 171.773 176.688 171.386C176.765 170.996 176.657 170.59 176.387 170.269C176.091 169.913 175.673 169.782 175.234 169.666C174.407 169.45 173.57 169.464 172.683 169.481H172.475V172.776H172.478ZM173.001 167.829C172.876 167.829 172.751 167.829 172.626 167.826C172.555 167.826 172.484 167.826 172.407 167.826H172.111V164.127H172.29C172.427 164.127 172.563 164.127 172.697 164.125C172.996 164.122 173.303 164.119 173.607 164.133C174.062 164.153 174.66 164.207 175.234 164.443C176.088 164.793 176.498 165.674 176.207 166.536C176.051 166.999 175.693 167.326 175.109 167.539C174.424 167.787 173.718 167.832 172.996 167.832L173.001 167.829ZM172.509 167.465C172.552 167.465 172.592 167.465 172.631 167.465C173.451 167.477 174.244 167.465 174.99 167.195C175.468 167.022 175.749 166.774 175.869 166.416C176.096 165.74 175.775 165.049 175.101 164.773C174.577 164.56 174.02 164.508 173.593 164.489C173.3 164.474 173.01 164.477 172.703 164.483C172.626 164.483 172.549 164.483 172.472 164.483V167.462H172.506L172.509 167.465Z" fill="#3D3B3B"></path>
<path d="M156.862 166.502C156.751 167.332 156.695 168.165 156.678 169.001C156.675 169.2 156.362 169.2 156.367 169.001C156.385 168.136 156.447 167.275 156.564 166.419C156.589 166.223 156.891 166.305 156.862 166.502Z" fill="white"></path>
<path d="M159.062 160.309C158.336 161.526 157.793 162.82 157.38 164.173C157.323 164.363 157.022 164.281 157.081 164.09C157.503 162.709 158.054 161.392 158.794 160.15C158.897 159.979 159.164 160.136 159.062 160.306V160.309Z" fill="white"></path>
<path d="M173.71 151.979C168.814 151.979 164.094 154.111 160.879 157.804C160.749 157.955 160.529 157.736 160.66 157.585C163.926 153.83 168.737 151.669 173.71 151.669C173.909 151.669 173.909 151.979 173.71 151.979Z" fill="white"></path>
<path d="M173.71 152.818C175.018 152.818 176.29 152.974 177.508 153.267C176.483 153.065 175.422 152.957 174.338 152.957C165.394 152.957 158.145 160.201 158.145 169.14C158.145 176.771 163.428 183.168 170.54 184.877C163.115 183.404 157.517 176.856 157.517 169.004C157.517 160.065 164.765 152.82 173.71 152.82V152.818Z" fill="#3D3B3B"></path>
<path d="M134.152 280.136L116.611 277.978L106.978 265.019L104.233 269.966L103.382 280.474C58.3736 277.437 20.8044 242.965 12.2443 198.984L7.47059 199.903L3.24029 196.298L0.49501 201.245C10.0367 250.47 52.1234 288.961 102.418 292.392L101.567 302.9C112.289 298.536 122.733 292.492 131.407 285.08L134.152 280.133V280.136Z" fill="#33725D"></path>
<path d="M101.035 303.628L101.908 292.83C89.6983 291.943 77.7641 288.992 66.4273 284.059C55.2926 279.214 45.0084 272.578 35.8594 264.345C17.4134 247.738 4.69116 225.363 0.0312934 201.336L0 201.168L2.66278 196.371C2.77373 196.172 2.96434 196.036 3.18624 195.996C3.40814 195.956 3.63572 196.016 3.80926 196.164L7.6043 199.399L12.6169 198.436L12.708 198.896C21.2482 242.774 59.1616 276.798 102.952 279.973L103.775 269.826L106.924 264.151L116.872 277.534L134.906 279.755L131.779 285.387L131.714 285.441C123.378 292.566 113.015 298.755 101.746 303.338L101.038 303.628H101.035ZM0.990009 201.324C10.5999 250.473 53.2414 288.565 102.449 291.923L102.924 291.954L102.096 302.173C112.969 297.669 122.957 291.664 131.034 284.778L133.401 280.516L116.355 278.418L116.235 278.256L107.038 265.886L104.696 270.105L103.817 280.977L103.354 280.946C92.2757 280.198 81.4482 277.551 71.1726 273.079C61.2156 268.746 52.0153 262.81 43.8335 255.434C27.4671 240.69 16.1332 220.854 11.8744 199.536L7.33972 200.409L3.37684 197.031L0.992854 201.324H0.990009Z" fill="#3D3B3B"></path>
<path d="M3.24313 196.3C12.7848 245.526 54.8716 284.016 105.166 287.448L104.315 297.956C115.037 293.592 125.481 287.548 134.155 280.136C124.135 276.559 115.165 271.518 106.981 265.019L106.13 275.527C61.1217 272.49 23.5526 238.018 14.9924 194.037L3.24313 196.298V196.3Z" fill="#67B9A2"></path>
<path d="M103.783 298.681L104.657 287.883C92.4464 286.996 80.5122 284.045 69.1755 279.112C58.0407 274.267 47.7566 267.631 38.6075 259.398C20.1615 242.794 7.4393 220.416 2.78227 196.391L2.69124 195.928L15.3651 193.489L15.4561 193.949C23.9964 237.824 61.9097 271.851 105.701 275.026L106.585 264.103L107.277 264.652C115.575 271.242 124.42 276.161 134.314 279.695L135.079 279.968L134.462 280.497C126.127 287.619 115.763 293.808 104.494 298.394L103.786 298.684L103.783 298.681ZM3.79504 196.673C13.5131 245.683 56.0835 283.627 105.197 286.976L105.672 287.007L104.844 297.226C115.47 292.822 125.25 286.987 133.227 280.3C123.817 276.855 115.345 272.146 107.379 265.931L106.563 276.027L106.099 275.996C95.021 275.248 84.1935 272.601 73.9179 268.129C63.9609 263.796 54.7606 257.86 46.5788 250.485C30.2124 235.74 18.8785 215.904 14.6197 194.586L3.79504 196.67V196.673Z" fill="#3D3B3B"></path>
<path d="M104.75 287.23L102.003 292.177L102.826 292.633L105.573 287.686L104.75 287.23Z" fill="#3D3B3B"></path>
<path d="M84.0911 275.083C87.8889 276.124 91.738 276.943 95.6326 277.534C97.1148 277.759 97.7549 275.49 96.2585 275.262C92.3639 274.671 88.5177 273.852 84.7169 272.812C83.2518 272.411 82.626 274.682 84.0911 275.083Z" fill="white" opacity="0.5"></path>
<path d="M32.7158 241.472C43.4551 254.962 57.9042 265.073 73.7898 271.615C75.1895 272.192 75.8011 269.914 74.4157 269.343C58.9056 262.955 44.8548 252.961 34.3801 239.806C33.4356 238.62 31.7799 240.298 32.713 241.472H32.7158Z" fill="white" opacity="0.5"></path>
<path d="M15.2683 209.876C17.5527 216.54 20.5 222.949 24.0646 229.025C24.8299 230.332 26.8696 229.147 26.0987 227.836C22.6337 221.934 19.7575 215.724 17.5385 209.251C17.0492 207.826 14.7733 208.438 15.2655 209.876H15.2683Z" fill="white" opacity="0.5"></path>
<path d="M103.898 297.738L101.151 302.685L101.974 303.142L104.722 298.195L103.898 297.738Z" fill="#3D3B3B"></path>
<path d="M248.458 115.203C236.9 68.7126 196.144 33.0115 147.793 29.7135L148.644 19.2053C140.143 22.6654 131.822 27.1831 124.417 32.5993L122.278 32.7556L118.804 37.026C128.824 40.6027 137.793 45.6435 145.978 52.1429L149.452 47.8725L146.777 42.2858L146.831 41.6319C191.84 44.6683 229.409 79.1412 237.969 123.121L249.718 120.861L253.192 116.591L248.461 115.203H248.458Z" fill="#33725D"></path>
<path d="M237.594 123.673L237.503 123.212C228.962 79.3345 191.049 45.3108 147.258 42.1351L147.252 42.1976L150.001 47.9379L146.046 52.7996L145.682 52.5096C137.384 45.9193 128.539 41.0007 118.645 37.4667L118.016 37.2421L122.039 32.2979L124.243 32.1358C131.381 26.93 139.753 22.31 148.462 18.7646L149.17 18.4746L148.297 29.2728C160.029 30.1257 171.525 32.8892 182.472 37.4866C193.231 42.0071 203.242 48.2023 212.223 55.8986C221.148 63.5466 228.826 72.4768 235.048 82.442C241.338 92.5209 245.98 103.413 248.845 114.822L253.997 116.335L249.969 121.288L237.591 123.67L237.594 123.673ZM146.396 41.1314L146.86 41.1627C157.938 41.9105 168.765 44.5574 179.041 49.0296C188.998 53.3625 198.198 59.299 206.38 66.674C222.746 81.4185 234.08 101.255 238.339 122.573L249.46 120.432L252.378 116.844L248.068 115.579L248.003 115.317C236.345 68.4226 195.126 33.4152 147.762 30.1826L147.287 30.1513L148.114 19.9331C139.688 23.4273 131.603 27.928 124.696 32.9802L124.588 33.0598L122.516 33.2105L119.589 36.8071C129.188 40.3041 137.805 45.1118 145.904 51.4832L148.897 47.8042L146.297 42.371L146.396 41.1286V41.1314Z" fill="#3D3B3B"></path>
<path d="M253.189 116.591C243.648 67.3651 201.561 28.8749 151.267 25.4432L152.117 14.9351C141.395 19.2992 130.951 25.3437 122.278 32.7557C132.297 36.3324 141.267 41.3732 149.452 47.8726L150.302 37.3644C195.311 40.4009 232.88 74.8737 241.44 118.854L253.189 116.594V116.591Z" fill="#67B9A2"></path>
<path d="M241.067 119.403L240.976 118.942C232.436 75.0641 194.523 41.0405 150.732 37.8647L149.847 48.7908L149.156 48.2421C140.857 41.6518 132.013 36.7332 122.118 33.1992L121.353 32.9262L121.97 32.3974C130.306 25.2754 140.67 19.0859 151.938 14.5L152.646 14.21L151.773 25.0081C163.983 25.8952 175.917 28.8463 187.254 33.7792C198.389 38.6238 208.673 45.2597 217.822 53.4934C236.268 70.0972 248.99 92.4754 253.647 116.5L253.738 116.963L241.064 119.403H241.067ZM149.87 36.8611L150.333 36.8924C161.411 37.6401 172.239 40.2871 182.514 44.7593C192.471 49.0922 201.672 55.0287 209.854 62.4037C226.22 77.1481 237.554 96.9846 241.81 118.302L252.634 116.218C242.916 67.2086 200.346 29.2643 151.232 25.9151L150.757 25.8838L151.585 15.6656C140.96 20.0696 131.176 25.9037 123.202 32.5907C132.616 36.0366 141.085 40.7477 149.05 46.9599L149.867 36.864L149.87 36.8611Z" fill="#3D3B3B"></path>
<path d="M174.907 32.3604C171.109 31.3198 167.26 30.501 163.366 29.9097C161.884 29.6851 161.243 31.9539 162.74 32.1813C166.634 32.7727 170.481 33.5915 174.281 34.6321C175.747 35.033 176.372 32.7613 174.907 32.3604Z" fill="white" opacity="0.5"></path>
<path d="M226.285 65.9718C215.546 52.4812 201.097 42.371 185.211 35.829C183.812 35.2518 183.2 37.5292 184.586 38.1007C200.096 44.4891 214.146 54.4827 224.621 67.6378C225.566 68.8234 227.221 67.146 226.288 65.9718H226.285Z" fill="white" opacity="0.5"></path>
<path d="M243.733 97.5675C241.448 90.9033 238.501 84.4949 234.937 78.4191C234.171 77.1113 232.132 78.2969 232.903 79.6075C236.365 85.5099 239.244 91.7192 241.463 98.193C241.952 99.6174 244.228 99.0062 243.736 97.5675H243.733Z" fill="white" opacity="0.5"></path>
<path d="M241.069 118.543L237.597 122.811L238.327 123.405L241.8 119.136L241.069 118.543Z" fill="#3D3B3B"></path>
</g>
<defs>
<clippath id="svg283337888_37139_clip0_61_7951">
<rect fill="white" height="314" width="254"></rect>
</clippath>
</defs>
</svg>