<svg fill="none" height="12" id="svg1091417323_2553" viewbox="0 0 12 12" width="12">
<path d="M6 1C5.01109 1 4.0444 1.29324 3.22215 1.84265C2.39991 2.39206 1.75904 3.17295 1.3806 4.08658C1.00217 5.00021 0.90315 6.00555 1.09608 6.97545C1.289 7.94536 1.76521 8.83627 2.46447 9.53553C3.16373 10.2348 4.05465 10.711 5.02455 10.9039C5.99445 11.0969 6.99979 10.9978 7.91342 10.6194C8.82705 10.241 9.60794 9.6001 10.1573 8.77785C10.7068 7.9556 11 6.98891 11 6C11 4.67392 10.4732 3.40215 9.53553 2.46447C8.59785 1.52678 7.32608 1 6 1ZM6 10.0909C5.1909 10.0909 4.39996 9.85098 3.72721 9.40147C3.05447 8.95195 2.53013 8.31304 2.22049 7.56552C1.91086 6.81801 1.82985 5.99546 1.9877 5.2019C2.14555 4.40834 2.53517 3.67941 3.10729 3.10729C3.67942 2.53517 4.40835 2.14555 5.2019 1.9877C5.99546 1.82985 6.81801 1.91086 7.56552 2.22049C8.31304 2.53012 8.95195 3.05447 9.40147 3.72721C9.85098 4.39996 10.0909 5.19089 10.0909 6C10.0909 7.08498 9.6599 8.12551 8.89271 8.89271C8.12552 9.6599 7.08498 10.0909 6 10.0909ZM4.63636 6C4.6357 6.27046 4.71547 6.53502 4.86555 6.76002C5.01563 6.98503 5.22923 7.16033 5.47919 7.26363C5.72915 7.36692 6.00418 7.39356 6.26932 7.34014C6.53446 7.28672 6.77772 7.15567 6.96818 6.96364C7.00927 6.91637 7.05969 6.8781 7.11627 6.85124C7.17285 6.82437 7.23438 6.80949 7.29698 6.80753C7.35958 6.80556 7.42191 6.81656 7.48007 6.83983C7.53822 6.86309 7.59094 6.89812 7.63491 6.94273C7.67888 6.98733 7.71317 7.04054 7.7356 7.09901C7.75804 7.15749 7.76815 7.21997 7.7653 7.28254C7.76245 7.34511 7.7467 7.40641 7.71904 7.46261C7.69137 7.5188 7.65239 7.56867 7.60455 7.60909C7.28647 7.92636 6.8815 8.14225 6.44079 8.22948C6.00008 8.3167 5.54341 8.27136 5.12846 8.09917C4.7135 7.92699 4.35889 7.63568 4.10942 7.26206C3.85994 6.88844 3.72679 6.44926 3.72679 6C3.72679 5.55074 3.85994 5.11156 4.10942 4.73794C4.35889 4.36431 4.7135 4.07301 5.12846 3.90082C5.54341 3.72864 6.00008 3.68329 6.44079 3.77052C6.8815 3.85775 7.28647 4.07364 7.60455 4.39091C7.65239 4.43133 7.69137 4.4812 7.71904 4.53739C7.7467 4.59358 7.76245 4.65489 7.7653 4.71746C7.76815 4.78003 7.75804 4.84251 7.7356 4.90099C7.71317 4.95946 7.67888 5.01267 7.63491 5.05727C7.59094 5.10187 7.53822 5.13691 7.48007 5.16017C7.42191 5.18344 7.35958 5.19443 7.29698 5.19247C7.23438 5.19051 7.17285 5.17563 7.11627 5.14876C7.05969 5.1219 7.00927 5.08363 6.96818 5.03636C6.77772 4.84433 6.53446 4.71328 6.26932 4.65986C6.00418 4.60644 5.72915 4.63307 5.47919 4.73637C5.22923 4.83967 5.01563 5.01497 4.86555 5.23997C4.71547 5.46498 4.6357 5.72954 4.63636 6Z" fill="#F8FFE8"></path>
</svg>