<svg id="svg12315286369" viewbox="0 0 16 16">
<path d="M 3.41 15.5 L 10.59 15.5 C 11.097 15.5 11.582 15.299 11.941 14.941 C 12.299 14.582 12.5 14.097 12.5 13.59 L 12.5 13.5 L 12.59 13.5 C 13.097 13.5 13.582 13.299 13.941 12.941 C 14.299 12.582 14.5 12.097 14.5 11.59 L 14.5 2.41 C 14.5 2.159 14.451 1.911 14.355 1.679 C 14.259 1.447 14.118 1.237 13.941 1.059 C 13.763 0.882 13.553 0.741 13.321 0.645 C 13.089 0.549 12.841 0.5 12.59 0.5 L 5.41 0.5 C 4.903 0.5 4.418 0.701 4.059 1.059 C 3.701 1.418 3.5 1.903 3.5 2.41 L 3.5 2.5 L 3.41 2.5 C 2.903 2.5 2.418 2.701 2.059 3.059 C 1.701 3.418 1.5 3.903 1.5 4.41 L 1.5 13.59 C 1.5 14.097 1.701 14.582 2.059 14.941 C 2.418 15.299 2.903 15.5 3.41 15.5 Z M 2.5 4.41 C 2.501 4.169 2.598 3.938 2.768 3.768 C 2.938 3.598 3.169 3.501 3.41 3.5 L 10.59 3.5 C 10.831 3.501 11.062 3.598 11.232 3.768 C 11.402 3.938 11.499 4.169 11.5 4.41 L 11.5 13.59 C 11.499 13.831 11.402 14.062 11.232 14.232 C 11.062 14.402 10.831 14.499 10.59 14.5 L 3.41 14.5 C 3.169 14.499 2.938 14.402 2.768 14.232 C 2.598 14.062 2.501 13.831 2.5 13.59 Z" fill='var(--token-6367dca9-02b9-4a70-a116-e05e0733684b, rgb(0, 0, 0)) /* {"name":"black"} */'></path>
</svg>