<svg id="svg3921664413" viewbox="0 0 20 20">
<path d="M 19.998 9.991 C 19.997 9.954 19.984 9.919 19.977 9.883 C 19.97 9.845 19.968 9.807 19.954 9.771 C 19.951 9.764 19.951 9.758 19.948 9.752 C 19.937 9.726 19.914 9.704 19.899 9.679 C 19.892 9.669 19.886 9.659 19.879 9.649 C 19.862 9.624 19.853 9.595 19.831 9.572 C 19.829 9.569 19.826 9.569 19.823 9.566 C 19.819 9.561 19.814 9.557 19.809 9.553 C 19.807 9.55 19.806 9.547 19.804 9.544 L 13.151 3.294 C 12.899 3.059 12.504 3.071 12.267 3.322 C 12.031 3.573 12.043 3.969 12.294 4.206 L 17.797 9.375 L 0.625 9.375 C 0.28 9.375 0 9.655 0 10 C 0 10.345 0.28 10.625 0.625 10.625 L 17.797 10.625 L 12.294 15.794 C 12.042 16.031 12.03 16.426 12.266 16.678 C 12.389 16.809 12.556 16.875 12.722 16.875 C 12.876 16.875 13.029 16.819 13.15 16.706 L 19.803 10.456 C 19.806 10.453 19.806 10.45 19.809 10.447 C 19.814 10.443 19.818 10.438 19.823 10.433 C 19.826 10.431 19.829 10.43 19.831 10.428 C 19.853 10.404 19.862 10.375 19.879 10.35 C 19.886 10.341 19.892 10.331 19.899 10.321 C 19.914 10.296 19.937 10.274 19.948 10.247 C 19.951 10.241 19.951 10.234 19.954 10.229 C 19.968 10.193 19.971 10.154 19.977 10.116 C 19.984 10.08 19.997 10.046 19.998 10.009 C 19.998 10.006 20 10.003 20 10 C 20 9.997 19.998 9.994 19.998 9.991 Z" fill='var(--token-eb6636f3-e844-4fc1-b8f6-ce98b0287261, rgb(248, 255, 232)) /* {"name":"light green"} */'></path>
</svg>