<svg fill="none" height="103" id="svg-1434110901_1226" viewbox="0 0 88 103" width="88">
<g clip-path="url(#svg-1434110901_1226_clip0_61_6886)">
<path d="M15.62 98.1399C10.42 92.0199 10.32 83.4099 8.25999 75.9599C5.46999 62.4999 2.00999 49.1299 0.549993 35.4499C-1.59001 22.0499 2.16999 4.18995 17.22 0.539947C32.53 -3.28005 40.38 14.1099 41.43 26.6899C47.57 16.4399 57.52 6.70995 69.93 5.59995C77.97 5.14995 85.92 10.8699 86.98 19.0599C89.36 35.9999 75.52 49.1999 66.46 61.8999C60.55 69.5699 54.78 77.34 48.67 84.8599C43.1 91.7 33.94 102.3 24.75 102.3C21.66 102.3 18.56 101.1 15.6 98.1499L15.62 98.1399ZM26.16 66.0499C27 69.78 27.85 73.5099 28.7 77.2299C29.06 78.81 29.4 80.41 29.76 82.0099C38.63 76.5399 45.62 68.5699 52.6 60.9499C59.76 52.6999 66.76 44.1799 71.82 34.4499C75.49 27.9099 77.2 15.3399 66.21 23.3999C59.06 28.2399 53.63 35.0699 48.88 42.1799C47.06 45.8999 43.14 48.7199 39 46.6699C38.21 48.3699 36.7 51.1999 34.42 50.0399C32.91 49.1899 32.4 47.0199 31.94 45.4899C31.31 43.41 30.87 41.2699 30.35 39.1599C28.2 31.6299 26.74 23.3399 21.57 17.1899C13.5 20.9299 24.82 57.6199 26.16 66.0499Z" fill="black"></path>
</g>
<defs>
<clippath id="svg-1434110901_1226_clip0_61_6886">
<rect fill="white" height="102.3" width="87.26"></rect>
</clippath>
</defs>
</svg>